<svg xmlns="http://www.w3.org/2000/svg" width="36.898" height="36.896" viewBox="0 0 36.898 36.896"><defs><style>.a{fill:#d53d33;}.b{fill:#fff;}</style></defs><g transform="translate(0 -0.011)"><g transform="translate(0 0.011)"><circle class="a" cx="17.028" cy="17.028" r="17.028" transform="translate(1.421 1.42)"/><path class="a" d="M18.449,36.907A18.448,18.448,0,0,1,5.4,5.407h0a18.458,18.458,0,1,1,13.052,31.5ZM7.419,7.429a15.6,15.6,0,1,0,22.061,0,15.62,15.62,0,0,0-22.061,0Z" transform="translate(0 -0.011)"/></g><g transform="translate(12.054 11.882)"><path class="b" d="M168.7,177.7a1.43,1.43,0,0,1-1.011-2.441L177.8,165.155a1.43,1.43,0,1,1,2.022,2.022l-10.108,10.108A1.428,1.428,0,0,1,168.7,177.7Z" transform="translate(-167.27 -164.735)"/><path class="b" d="M178.79,177.7a1.426,1.426,0,0,1-1.011-.419l-10.108-10.108a1.43,1.43,0,0,1,2.022-2.022L179.8,175.263a1.43,1.43,0,0,1-1.011,2.441Z" transform="translate(-167.251 -164.735)"/></g></g></svg>