<svg xmlns="http://www.w3.org/2000/svg" width="22" height="22" viewBox="0 0 22 22"><defs><style>.a{fill:#fff;}</style></defs><g transform="translate(0 3.902)"><path class="a" d="M15.737,85.333H2.361A2.361,2.361,0,0,0,0,87.694V101.07a2.361,2.361,0,0,0,2.361,2.361H15.737A2.361,2.361,0,0,0,18.1,101.07V87.694A2.361,2.361,0,0,0,15.737,85.333Zm.787,15.737a.787.787,0,0,1-.787.787H2.361a.787.787,0,0,1-.787-.787V87.694a.787.787,0,0,1,.787-.787H15.737a.787.787,0,0,1,.787.787Z" transform="translate(0 -85.333)"/></g><g transform="translate(3.147)"><path class="a" d="M84.763,0H70.624a2.357,2.357,0,0,0-2.357,2.357.786.786,0,1,0,1.571,0,.786.786,0,0,1,.786-.786H84.763a.786.786,0,0,1,.786.786V16.5a.786.786,0,0,1-.786.786.786.786,0,0,0,0,1.571A2.357,2.357,0,0,0,87.119,16.5V2.357A2.357,2.357,0,0,0,84.763,0Z" transform="translate(-68.267)"/></g></svg>