<svg xmlns="http://www.w3.org/2000/svg" width="26" height="14" viewBox="0 0 26 14"><defs><style>.a{fill:#fff;}.b{fill:#ce1124;}.c{fill:#00247d;}</style></defs><rect class="a" width="25.993" height="13.976" transform="translate(0 0.001)"/><path class="b" d="M26.817,5.752H15.372V.16H12.248V5.752H.833V8.546H12.248v5.589h3.124V8.546H26.817Z" transform="translate(-0.822 -0.158)"/><path class="c" d="M.019,122.154V125.2H5.81Z" transform="translate(-0.019 -120.524)"/><path class="c" d="M233.145.05l-.085,0,7.508,3.97V.05Z" transform="translate(-229.95 -0.049)"/><path class="b" d="M8.93,4.76.019.1V1.2L6.807,4.76Z" transform="translate(-0.019 -0.104)"/><path class="b" d="M1322.212,699.36l8.911,4.655v-1.1l-6.788-3.558Z" transform="translate(-1305.124 -690.039)"/><path class="c" d="M.019,702.719v-3.046H5.81Z" transform="translate(-0.019 -690.348)"/><path class="c" d="M233.145,756.2l-.085,0,7.508-3.97V756.2Z" transform="translate(-229.95 -742.196)"/><path class="b" d="M9.316,699.336l-8.86,4.653,2.072,0,8.549-4.466v-.189Z" transform="translate(-0.45 -690.016)"/><path class="c" d="M1561.859,122.1v3.046h-5.791Z" transform="translate(-1535.859 -120.475)"/><path class="c" d="M1201.727,0l.085,0-7.508,3.97V0Z" transform="translate(-1178.921)"/><path class="b" d="M1205.475.476h-1.993l-8.609,4.5v.158h1.822Z" transform="translate(-1179.484 -0.47)"/><path class="c" d="M1561.859,702.634v-3.046h-5.791Z" transform="translate(-1535.859 -690.264)"/><path class="c" d="M1201.727,756.109l.085,0-7.508-3.97v3.974Z" transform="translate(-1178.921 -742.11)"/></svg>