<svg xmlns="http://www.w3.org/2000/svg" width="46" height="65" viewBox="0 0 46 65"><defs><style>.a{fill:#ef9bc2;}.b{fill:#fff;}.c{fill:#ffd400;}.d{fill:#e4003f;}.e{fill:#ffbf37;}</style></defs><g transform="translate(0)"><path d="M2282.432,350.207a5.946,5.946,0,0,1,.76-.33,5.66,5.66,0,0,1,1.528-2.713,16.359,16.359,0,0,1-1.117-1.7,11.871,11.871,0,0,1-1.58-8.285,20.427,20.427,0,0,1,3-6.938,1.076,1.076,0,0,0-.057-.756c-1.8-5.082-3.145-12.186.6-16.826,2.011-2.229,5.26-2.55,7.989-1.724,2.7.674,4.6,3.278,5.472,5.759a20.254,20.254,0,0,1,1.437-2.8,6.754,6.754,0,0,1,5.778-3.273,7.506,7.506,0,0,1,6.695,3.5,14.446,14.446,0,0,1,1.087,9.853,3.346,3.346,0,0,1,.446,3.235,3.565,3.565,0,0,1-2.131,1.895c-.64.6.207,1.27.326,1.875,2.626,4,3.882,9.712,1.65,14.3-.306.422-.52.935-.854,1.326.151.242.453.335.665.576a6.1,6.1,0,0,1,1.508,2.544c3.886-.139,7.887.872,10,4.415a9.41,9.41,0,0,1,.89,6.014,8.976,8.976,0,0,1-4.788,6.692,13.72,13.72,0,0,1-7.532,1.272c-2.228,3.406-5.576,6.628-9.706,7.035a33.672,33.672,0,0,1-5.555.374c-3.946.016-7.8-.3-10.7-2.786-4.54-3.461-6.283-8.512-7.176-13.712a24.348,24.348,0,0,1-.374-5.77A3.935,3.935,0,0,1,2282.432,350.207Z" transform="translate(-2280.641 -310.524)"/><path class="a" d="M2284.4,374.321h.061a4.492,4.492,0,0,0,2.165,2.754,4.033,4.033,0,0,0,1.446.82,6.641,6.641,0,0,0,6.585-1.334,5.468,5.468,0,0,0,1.519-2.682c2.988.01,5.645-.07,8.634-.031a5.585,5.585,0,0,0,3.729,4.029,6.51,6.51,0,0,0,7.223-2.088,6.44,6.44,0,0,0,.455-.784c0-.029.03.031.031,0a24.474,24.474,0,0,1-.693,8.24c-.951,4.194-3.26,8.472-7.253,10.781-2.269,1.291-5.167,1.28-7.734,1.362-3.653-.044-7.546-.027-10.224-2.6-4.486-3.76-5.736-9.138-6.35-14.574C2283.968,376.915,2283.672,375.436,2284.4,374.321Z" transform="translate(-2281.781 -332.531)"/><path class="b" d="M2288.7,331.722c.364-.814-.328-1.541-.476-2.3a23.165,23.165,0,0,1-1.416-9.485,9.776,9.776,0,0,1,1.92-5.1c1.665-1.654,4.5-1.644,6.524-.792,3.556,1.764,3.964,5.75,4.586,9.194a4.166,4.166,0,0,0-1.634.9,3.066,3.066,0,0,0-.914,2.715,3.552,3.552,0,0,0,1.38,2.237,6.839,6.839,0,0,0,2.289,1.247c-.06.332-.274.693-.366,1.024a3.526,3.526,0,0,0,.954,3.928,3.638,3.638,0,0,0,3.2.495,5.406,5.406,0,0,0,2.391-1.863h.091a4.935,4.935,0,0,0,3.764,2.4,3.233,3.233,0,0,0,2.66-1.26c1.65,3.3,2.087,8.19-.219,11.321a3.093,3.093,0,0,1-.272.36,6.877,6.877,0,0,0-4.471.227,5.63,5.63,0,0,0-3.332,3.64c-2.717.052-5.856.04-8.694.06a7.033,7.033,0,0,0-1.019-2,6.476,6.476,0,0,0-6.212-2.105c-.485.18-1,.268-1.482.479a10.338,10.338,0,0,1-2.385-8.644A17.862,17.862,0,0,1,2288.7,331.722Z" transform="translate(-2282.293 -311.556)"/><path class="b" d="M2289.667,366.993a4.857,4.857,0,0,1,5.009,1.076,3.354,3.354,0,0,1,.9,3.051,4.123,4.123,0,0,1-3.482,2.887,4.657,4.657,0,0,1-4.673-2.04,3.311,3.311,0,0,1,.011-3.139A4.174,4.174,0,0,1,2289.667,366.993Z" transform="translate(-2282.866 -330.069)"/><path d="M2296.41,353.244a1.249,1.249,0,0,1,1.3.126,2.475,2.475,0,0,1,.2,2.536,1.122,1.122,0,0,1-.758.511,1.633,1.633,0,0,1-1.176-.367,2.664,2.664,0,0,1-.173-2.294A1.412,1.412,0,0,1,2296.41,353.244Z" transform="translate(-2285.808 -325.343)"/><path class="c" d="M2298.445,380.908a3.814,3.814,0,0,1,3.379.253c.121-.331-.058-.724,0-1.087a3.242,3.242,0,0,1,1.518-2.772,2.754,2.754,0,0,1,2.688-.141,3.213,3.213,0,0,1,1.651,2.874,4.446,4.446,0,0,1-.308,1.448,5.928,5.928,0,0,1,2.3-.657,2.775,2.775,0,0,1,2.653,1.368,2.849,2.849,0,0,1-.071,2.9,5.5,5.5,0,0,1-3.056,1.921,3.551,3.551,0,0,1,1.5,3.689,3.361,3.361,0,0,1-2.816,2.284,3.164,3.164,0,0,1-2.862-1.55,5.092,5.092,0,0,1-.508-1.389.1.1,0,0,0-.06.029,3.955,3.955,0,0,1-3.15,2.616,2.446,2.446,0,0,1-2.622-1.187,3.141,3.141,0,0,1-.082-2.928,5.953,5.953,0,0,1,1.7-1.776c-.212-.151-.574-.092-.815-.154a3.708,3.708,0,0,1-2.859-2.757c-.329-1.028.49-1.78,1.066-2.5C2297.93,381.209,2298.2,381.059,2298.445,380.908Z" transform="translate(-2286.099 -333.591)"/><path d="M2303.352,361.274c.786-.42,1.477.487,2.264.158.271-.24.573-.42.545-.813-.392-.243-.964-.607-1.083-1.15a1.147,1.147,0,0,1,.427-1.267,2.867,2.867,0,0,1,2.386-.023,1.3,1.3,0,0,1,.052,2.175c-.183.12-.453.088-.545.36,0,.362.36.575.633.727.9.275,1.45-.719,2.294-.384a.548.548,0,0,1,.27.6,2.467,2.467,0,0,1-2.358,1.048,8.423,8.423,0,0,0-4.527-.378,1.081,1.081,0,0,1-.481-.727A.41.41,0,0,1,2303.352,361.274Z" transform="translate(-2288.416 -327.013)"/><path class="d" d="M2306.623,328.32c1.452-.659,3.14-.08,4.406.529a.436.436,0,0,0,.332-.15c.154-.906-.144-2.024.192-2.959.244-.844.731-1.959,1.788-2.077a2.054,2.054,0,0,1,1.96.762c.872,1.151.8,2.75.649,4.2a.415.415,0,0,0,.18.211,17.229,17.229,0,0,0,1.693-.416,3.751,3.751,0,0,1,3.558.768,1.952,1.952,0,0,1,.476,1.873c-.487,1.418-2.057,1.5-3.266,1.83a.352.352,0,0,0-.214.422,9.328,9.328,0,0,1,1.322,2.027,2.6,2.6,0,0,1-.252,2.716,2.128,2.128,0,0,1-2.233.264c-1.237-.457-2.017-1.818-2.616-2.937-.09-.121-.272-.092-.423-.153-.514.3-.548.934-.97,1.355a3.163,3.163,0,0,1-3.024,1.559,1.814,1.814,0,0,1-1.325-1.181c-.357-1.361.4-2.445.979-3.5a.327.327,0,0,0-.059-.393,3.672,3.672,0,0,0-1.146-.4c-1.176-.427-2.773-1.1-2.979-2.576A1.817,1.817,0,0,1,2306.623,328.32Z" transform="translate(-2289.22 -315.09)"/><path class="a" d="M2307.139,387.473a2.192,2.192,0,0,1,2.114-.052,2.164,2.164,0,0,1,.777,1.813,2.139,2.139,0,0,1-1.574,1.535,1.791,1.791,0,0,1-1.718-.851A1.91,1.91,0,0,1,2307.139,387.473Z" transform="translate(-2289.539 -337.188)"/><path class="b" d="M2312.843,315.4a4.574,4.574,0,0,1,3.3-1.77,5.69,5.69,0,0,1,5.456,2.645,12.559,12.559,0,0,1,1,7.489,5.894,5.894,0,0,0-3.532-.072c.007-1.872-.621-3.836-2.4-4.626a4.776,4.776,0,0,0-1.178-.276,3.332,3.332,0,0,0-2.387.957,5.682,5.682,0,0,0-1.371,3.768c-.423-.031-.754-.274-1.207-.274-.031,0,0-.031-.031-.06C2310.592,320.31,2310.933,317.534,2312.843,315.4Z" transform="translate(-2290.901 -311.6)"/><path d="M2316.119,332.752a2.265,2.265,0,0,1,2.235.04,2.183,2.183,0,0,1,.959,1.844,2.043,2.043,0,0,1-1.062,1.747,2.171,2.171,0,0,1-2.325-.249,2.247,2.247,0,0,1-.747-2A2.122,2.122,0,0,1,2316.119,332.752Z" transform="translate(-2292.535 -318.161)"/><path class="e" d="M2317.288,333.8a1.317,1.317,0,0,1,1.268.307,1.033,1.033,0,0,1,.356,1.117,1.247,1.247,0,0,1-.908.9,1.2,1.2,0,0,1-1.3-.518,1.3,1.3,0,0,1-.086-1.206A1.57,1.57,0,0,1,2317.288,333.8Z" transform="translate(-2293.01 -318.601)"/><path d="M2317.965,354.112a1.474,1.474,0,0,1,1.238-.117,1.849,1.849,0,0,1,.748,1.573,1.66,1.66,0,0,1-.819,1.6,1.338,1.338,0,0,1-1.177-.094,2.217,2.217,0,0,1-.416-2.387A1.285,1.285,0,0,1,2317.965,354.112Z" transform="translate(-2293.308 -325.616)"/><path class="b" d="M2320.483,367.246a5.036,5.036,0,0,1,4.89.228,3.646,3.646,0,0,1,1.679,3.025,3.806,3.806,0,0,1-2.757,3.311,4.823,4.823,0,0,1-4.917-1.1,3.461,3.461,0,0,1-.59-3.805A4.258,4.258,0,0,1,2320.483,367.246Z" transform="translate(-2293.658 -330.069)"/><path class="a" d="M2334.322,386c2.205-.023,4.59-.678,5.626-2.909.729-1.779.77-4.224-.706-5.678a4.409,4.409,0,0,0-3.377-1.189,5.57,5.57,0,0,0-.415-2.236c.03-.09.181-.058.241-.028,2.748.1,5.639,1.438,6.688,4.1a8.052,8.052,0,0,1-1.141,7.031c-1.608,2.078-3.935,2.764-6.408,2.935a3.579,3.579,0,0,1-1.27,0C2333.834,387.354,2334.109,386.692,2334.322,386Z" transform="translate(-2298.837 -332.562)"/><path class="b" d="M2336.5,380.822a2.209,2.209,0,0,1,2.11.67,3.338,3.338,0,0,1,.263,2.748c-.427,1.388-1.878,1.805-3.117,1.981-.061.031-.061-.06-.09-.06A31,31,0,0,0,2336.5,380.822Z" transform="translate(-2299.573 -334.97)"/></g></svg>