<svg xmlns="http://www.w3.org/2000/svg" width="63" height="45" viewBox="0 0 63 45"><defs><style>.a{fill:#e4023f;}.b{fill:#fff;}.c{fill:#ffd400;}</style></defs><g transform="translate(-1874.113 -478.439)"><g transform="translate(1874.113 478.439)"><path d="M1926.113,503.928a6.684,6.684,0,0,0-3.258-.522,17.036,17.036,0,0,0-1.79-.007c-.106-.064-.3.021-.362-.128a20.587,20.587,0,0,0-3.353-9.82,16.671,16.671,0,0,0,.682-6.167,11.454,11.454,0,0,0-2.768-6.308,3.639,3.639,0,0,0-3-.777,26.2,26.2,0,0,0-8.726,3.395.179.179,0,0,1-.149.042c-.894-.174-1.831-.283-2.767-.414a37.416,37.416,0,0,0-6.35.233c-.021-.021-.064-.021-.085-.042-1.059-1.962-2.607-4.157-4.883-4.8a5.344,5.344,0,0,0-5.7,2.277,22.235,22.235,0,0,0-1.285,1.954,32.934,32.934,0,0,0-6.129-1.7c-1.662-.134-3.7-.673-4.882.791a7.839,7.839,0,0,0-.9,2.337c-.191.1-.022.212-.065.382-.195.7-.239,1.467-.37,2.169l-.449.253c-1.366.847-1.627,2.484-1.463,4.016a11.081,11.081,0,0,0,1.094,4c.318.64.721,1.217,1.081,1.813a22.266,22.266,0,0,0-1.446,5.016,28.451,28.451,0,0,0-.2,3.041.318.318,0,0,1-.151.318c-.277.042-.533.084-.81.1a15.179,15.179,0,0,0-4.072.752.789.789,0,0,0-.387,1c.106.128.211.277.4.256a37.49,37.49,0,0,0,4.156-.411c.34-.02.789-.124,1,.237.211.788.4,1.619.567,2.428.083.447.3.83.358,1.277.02.107-.086.17-.151.212a21.76,21.76,0,0,0-2.986,1.075,1.309,1.309,0,0,0-.067.808.69.69,0,0,0,.554.257c.894-.146,1.769-.291,2.621-.459a.924.924,0,0,1,.958.28c.487.831,1.039,1.662,1.568,2.473a.711.711,0,0,1,.19.426c-1.3.952-2.775,1.522-3.951,2.667a1.162,1.162,0,0,0-.238,1.063c.212.341.681.193,1,.132a26,26,0,0,1,3.992-2.284,1.446,1.446,0,0,1,.555-.253,21.573,21.573,0,0,0,9.463,4.819s3.373.755,3.875.8a55.142,55.142,0,0,0,6.71.47c.681.045,1.448.026,2.129.028l2.919-.117c.767-.019,1.406-.08,2.13-.141l2.388-.311c5.328-.811,10.554-2.367,14.191-6.843a.768.768,0,0,1,.448.044,34.066,34.066,0,0,0,4.446,1.7.785.785,0,0,0,.6-.571.732.732,0,0,0-.254-.64,38.887,38.887,0,0,0-3.977-2.056c-.085-.064-.255-.129-.254-.277.429-.956.88-1.891,1.224-2.868a1.528,1.528,0,0,1,.365-.616,16.965,16.965,0,0,1,2.96.244,2.578,2.578,0,0,0,1.663-.186.829.829,0,0,0,0-.638,12.626,12.626,0,0,0-3.745-1.013c-.235-.064-.511-.086-.638-.343-.019-.893.2-1.658.222-2.531.065-.382-.019-.894.281-1.168,1.642-.484,3.557.1,5.263-.28" transform="translate(-1863.113 -478.439)"/><path class="a" d="M1875.265,495.647a5.887,5.887,0,0,1,2.73-.523,10.453,10.453,0,0,1,3.682.651c.022.171-.107.3-.129.448a5.054,5.054,0,0,0-.216.936,2.7,2.7,0,0,0-2.1,4.509,2.691,2.691,0,0,0,3.792.162,5.449,5.449,0,0,0,.807.62,4.7,4.7,0,0,1-3.462,3.141c-2.366.268-3.933-2.208-4.928-3.957a8.557,8.557,0,0,1-.835-5.074A1.589,1.589,0,0,1,1875.265,495.647Z" transform="translate(-1868.05 -485.696)"/><path class="b" d="M1877.413,501.587c.042-.064.086,0,.127.022a4.849,4.849,0,0,0,4.129,1.12,6.336,6.336,0,0,0,4.254-3.962c.255-.021.531.086.809.087a5.372,5.372,0,0,0,4.843-2.132c2.276.944,5.47,1.529,7.649.027,1.922-1.4,2.378-3.863,1.96-6.14a16.677,16.677,0,0,0-.483-2.107,27.591,27.591,0,0,1,7.137.045,4.454,4.454,0,0,0,1.832.092,14.471,14.471,0,0,0,2.028-1.121,18.448,18.448,0,0,1,6.4-2.275,2.042,2.042,0,0,1,1.618.453,9.456,9.456,0,0,1,2.153,6.005,5.873,5.873,0,0,1-.606,2.657c-.34-.192-.744-.513-1.17-.322-.151.148-.385.3-.428.509-.023.659.486,1.022.826,1.513a16.056,16.056,0,0,1,1.463,2.216,21.6,21.6,0,0,1,1.753,4.218,13.654,13.654,0,0,1,.646,3.873.231.231,0,0,1-.214.17,23.705,23.705,0,0,0-2.495.629c-.214.106-.532.062-.661.316a.717.717,0,0,0,0,.66,1.263,1.263,0,0,0,.681.364c.767-.125,1.534-.228,2.3-.332.149,0,.34-.041.4.129a12.417,12.417,0,0,1-.289,3.339c-.258.382-.768.1-1.215.186-.341.042-.746.062-.918.423a.455.455,0,0,0,.041.4c.36.512,1.021.45,1.51.708.085.043.085.106.106.17a14.068,14.068,0,0,1-1.374,3.058c-.128.17-.383.127-.6.125a3.2,3.2,0,0,0-1.555-.09c-.256.148-.28.467-.3.722.3.554.935.577,1.382.919,0,.044-.022.065-.022.106-4.234,4.411-9.989,5.41-15.892,5.9-1.556.1-2.962.161-4.538.176a48.8,48.8,0,0,1-10.883-1.1c-3.129-.776-6.172-1.829-8.634-4.072a.317.317,0,0,1,.127-.106,6.99,6.99,0,0,0,1.687-1.056.827.827,0,0,0-.339-.81,2.727,2.727,0,0,0-1.086.124c-.64.232-1.408.825-2.024.12a11.4,11.4,0,0,1-1.568-2.494c.087-.19.406-.211.619-.273.469-.232,1.108-.188,1.429-.676a.78.78,0,0,0-.041-.383c-.361-.6-1.108-.259-1.639-.26-.363-.023-.961.293-1.15-.218a12.3,12.3,0,0,1-.758-2.661c.107-.234-.125-.724.259-.765.875-.168,1.81.113,2.684-.076a.828.828,0,0,0,.364-.488.623.623,0,0,0-.359-.575,10.913,10.913,0,0,0-2.79-.414c-.68-.258-.4-1.087-.462-1.661A16.99,16.99,0,0,1,1877.413,501.587Z" transform="translate(-1868.763 -481.393)"/><path class="b" d="M1879.623,487.09a3.469,3.469,0,0,1,2.409-.29,22.455,22.455,0,0,1,6.214,1.747c-.085.128.02.406-.215.384a5.393,5.393,0,0,0-3.692,1.883,12.775,12.775,0,0,0-5.642-.829A7.014,7.014,0,0,1,1879.623,487.09Z" transform="translate(-1869.876 -482.035)"/><path class="a" d="M1885.119,501.49a1.158,1.158,0,0,1,.469-.063c.106.192.084.449.168.64a5.282,5.282,0,0,0,.55,1.28.962.962,0,0,1-1.045.359,1.159,1.159,0,0,1-.85-.749A1.2,1.2,0,0,1,1885.119,501.49Z" transform="translate(-1872.332 -488.432)"/><path class="a" d="M1891.255,493.711a3.873,3.873,0,0,1,3.642.055,3.8,3.8,0,0,1,1.862,3.821,3.928,3.928,0,0,1-2.8,3.142,3.758,3.758,0,0,1-4.52-4.979A3.862,3.862,0,0,1,1891.255,493.711Z" transform="translate(-1874.426 -484.895)"/><path d="M1893.561,526.861a1.735,1.735,0,0,1,1.916.538,3.225,3.225,0,0,1,.483,1.77,2.464,2.464,0,0,1-1.159,2.4,2.12,2.12,0,0,1-1.853-.262,3.22,3.22,0,0,1-.5-3.241A1.962,1.962,0,0,1,1893.561,526.861Z" transform="translate(-1875.754 -499.449)"/><path class="a" d="M1901.524,481.588a3.357,3.357,0,0,1,3.175-.159,9.01,9.01,0,0,1,3.416,4,11.779,11.779,0,0,1,1.216,5.586,3.484,3.484,0,0,1-2.1,3.081,7.959,7.959,0,0,1-5.345-.509,5.385,5.385,0,0,0,.282-1.32,3.036,3.036,0,0,0,2.522-2.1,2.971,2.971,0,0,0-1.055-3.349,3.251,3.251,0,0,0-3.344-.245c-.255.169-.491.381-.726.572a6.5,6.5,0,0,0-1.4-.537A9.314,9.314,0,0,1,1901.524,481.588Z" transform="translate(-1878.323 -479.595)"/><path class="a" d="M1903.481,492.842a1.489,1.489,0,0,1,1.6.624,1.511,1.511,0,0,1,.1,1.555,1.469,1.469,0,0,1-1.024.784,5.477,5.477,0,0,0-1.333-2.582A1.1,1.1,0,0,1,1903.481,492.842Z" transform="translate(-1880.345 -484.684)"/><path d="M1914.991,535.12a3.991,3.991,0,0,1,4.238.547,2.1,2.1,0,0,1,.507,1.045,2.046,2.046,0,0,1-1.008,2.042,4.5,4.5,0,0,1-4.068-.27,1.862,1.862,0,0,1-.739-2.005A1.917,1.917,0,0,1,1914.991,535.12Z" transform="translate(-1885.143 -502.923)"/><path class="c" d="M1916.719,537.023a2.435,2.435,0,0,1,2.322.285.826.826,0,0,1,.316.725.6.6,0,0,1-.193.49,2.632,2.632,0,0,1-2.237.268,1.463,1.463,0,0,1-.828-.769A1.222,1.222,0,0,1,1916.719,537.023Z" transform="translate(-1886.108 -503.842)"/><path d="M1938.829,527.3a2.23,2.23,0,0,1,1.811.027,2.872,2.872,0,0,1,.778,2.943,2.085,2.085,0,0,1-1.262,1.636,1.724,1.724,0,0,1-1.6-.367,2.291,2.291,0,0,1-.677-1.281A2.979,2.979,0,0,1,1938.829,527.3Z" transform="translate(-1895.544 -499.61)"/></g></g></svg>