<svg xmlns="http://www.w3.org/2000/svg" width="73" height="50" viewBox="0 0 73 50"><defs><style>.a{fill:#fff;}.b{fill:#e4003f;}.c{fill:#ffd400;}.d{fill:#ef9bc2;}.e{fill:#ffbf37;}</style></defs><g transform="translate(-2141.654 -267.406)"><g transform="translate(2141.654 267.406)"><path d="M2142.029,288.772a9.852,9.852,0,0,1,2.6-.5c.358-.033.666-.08,1.025-.114.342-.227.13-.7.211-1.054a14.683,14.683,0,0,1,2.114-7.057,14.126,14.126,0,0,1-.8-4.218,10.7,10.7,0,0,1,.406-2.547,7.932,7.932,0,0,1,1.513-2.855c1.333-1.136,3.285-.438,4.764-.1a23.943,23.943,0,0,1,4.293,1.719,20.751,20.751,0,0,1,3.79-.6c1.009.032,2.049-.032,3.09.032.943-1.817,2.471-4.1,4.83-4.071,1.886.016,3.318,1.622,4.147,3.163a23.927,23.927,0,0,1,3.643-1.362,9.993,9.993,0,0,1,3.675-.438c1.187.195,1.48,1.541,1.822,2.466a23,23,0,0,1,.471,2.6,2.759,2.759,0,0,1,1.366,2.855,9.97,9.97,0,0,1-.211,1.7,8.029,8.029,0,0,1-1.09,2.515,18.2,18.2,0,0,1,1.74,5.662c.26.308,2.8.27,3.61.291.685.1.765-.045.765.6-.033.535-3.22.223-4.228.531-.229.179-.082.5-.13.747-.016.713-.179,1.362-.2,2.06.438.47,2.814.779,3.333,1.071a.55.55,0,0,1,.017.5c-.341.228-.863.113-1.237.131a14.816,14.816,0,0,0-2.26-.2c-.39.082-.293.536-.438.812-.26.616-.5,1.249-.8,1.849a.232.232,0,0,0,.146.211c.992.551,2.082.908,3.025,1.557a.592.592,0,0,1,.227.6.711.711,0,0,1-.406.373,12.55,12.55,0,0,1-2.358-.876c-.487-.146-.91-.487-1.464-.438A17.9,17.9,0,0,1,2181.48,298a16.644,16.644,0,0,1-4.114,2.385c-.358.082-.667.276-1.008.357a41.624,41.624,0,0,1-4.082.941.34.34,0,0,0-.065.081c.26,1.119.585,2.239.895,3.341a.2.2,0,0,0,.195,0,7.586,7.586,0,0,1,2-.535,5.882,5.882,0,0,1,5.854,2.888,6.849,6.849,0,0,1-.212,7.186c-1.349,2.061-3.724,2.515-6,2.563-1.105.1-2.195.1-3.284.114-2.017.016-4.115.032-6.115.081-1.757-.049-3.415-.065-5.139-.13-.634-.032-1.333-.113-2-.194a38.44,38.44,0,0,1-6.115-.195c-1.382-.2-2.879-.616-3.594-2a3.479,3.479,0,0,1,.244-3.423c1.3-1.573,3.318-1.784,5.22-2.108.5-.244.537-.828.748-1.265.911-2.239,2.781-4.1,3.367-6.489a.609.609,0,0,0-.212-.665,17.649,17.649,0,0,1-3.837-1.1,13.665,13.665,0,0,1-4.359-2.5c-.049.016-.1-.017-.146,0a20.514,20.514,0,0,0-3.317,1.9,1.166,1.166,0,0,1-.748.1c-.2-.13-.146-.406-.146-.6.179-.438,2.585-1.9,3.269-2.385-.016-.292-.325-.47-.439-.73-.309-.5-.634-.974-.911-1.493-.537-.536-2.7.293-3.155,0a.753.753,0,0,1-.016-.648,10.689,10.689,0,0,1,2.309-.86c.244-.081.065-.291.049-.438-.276-.827-.391-1.72-.651-2.564-.179-.291-.569-.178-.878-.178a23.454,23.454,0,0,1-3.22.259.364.364,0,0,1-.211-.276A.643.643,0,0,1,2142.029,288.772Z" transform="translate(-2141.654 -267.406)"/><path class="a" d="M2159.121,289.162a14.975,14.975,0,0,1,1.74-2.992.911.911,0,0,0,.081-.585.922.922,0,0,0-.406-.342c-.326-.065-.537.2-.8.309a4.755,4.755,0,0,1-.569-1.968,7.208,7.208,0,0,1,1.35-4.618c.65-.683,1.837-.406,2.651-.243a18.38,18.38,0,0,1,4.732,1.9c.862.487,1.789-.1,2.683-.163a21.536,21.536,0,0,1,4.358-.179c.033.114-.065.243-.081.374-.423,1.61-.585,3.659.472,5.041,1.105,1.561,3.138,1.691,4.862,1.3a12.173,12.173,0,0,0,1.74-.569,4.048,4.048,0,0,0,4.26,1.48,6.125,6.125,0,0,0,1.48,2.1,3.768,3.768,0,0,0,3.741.748,4.827,4.827,0,0,0,1.8-1.3,7.965,7.965,0,0,1,.764,1.741,12.688,12.688,0,0,1,.553,2.619.331.331,0,0,1-.162.325,8.4,8.4,0,0,1-1.139.227c-.374.113-.78.195-1.138.341a.579.579,0,0,0-.2.52.748.748,0,0,0,.586.391c.569-.1,1.154-.162,1.723-.26a.5.5,0,0,1,.342.1,6.494,6.494,0,0,1-.017,1.121c-.049.472-.114.96-.2,1.431-.13.228-.186.165-.666.131-.375.081-.911-.017-1.025.455.146.488.683.536,1.089.65.082.048.18.1.212.212a9.175,9.175,0,0,1-1.041,2.342c-.553.292-1.2-.277-1.74.114a.975.975,0,0,0-.13.422c.146.423.634.472.943.716.032.033,0,.065-.016.115a8.569,8.569,0,0,1-2.6,2.195,15.205,15.205,0,0,1-5.025,1.854,28.647,28.647,0,0,1-7.692.569,42.934,42.934,0,0,1-9.562-1.382,15.771,15.771,0,0,1-5.107-2.456c-.049-.033-.032-.114-.015-.163.341-.358.894-.391,1.154-.846a.655.655,0,0,0-.309-.585,3.655,3.655,0,0,0-1.544.423.769.769,0,0,1-.8-.211,8.168,8.168,0,0,1-1.2-1.87c.017-.1.114-.147.179-.18.422-.113.83-.26,1.22-.406.064-.048.146-.1.162-.179a.475.475,0,0,0-.2-.488c-.423-.163-.927.065-1.415,0a.493.493,0,0,1-.471-.048,6.779,6.779,0,0,1-.651-2.229v-.487c0-.017.016-.017.016-.034a4.169,4.169,0,0,1,1.269-.015c.407-.049,1.09.162,1.22-.407.016-.5-.57-.488-.894-.634-.5-.016-.992-.163-1.512-.179a.5.5,0,0,1-.326-.276A14.476,14.476,0,0,1,2159.121,289.162Z" transform="translate(-2152.178 -274.623)"/><path class="a" d="M2166.385,392.248a9.21,9.21,0,0,1,2.342-.489c.162.032.358,0,.537.016a5.733,5.733,0,0,0,1.431,4.538c.017.049-.049.049-.081.049a7.916,7.916,0,0,1-4.846-.7,1.873,1.873,0,0,1-.732-1.887A2.465,2.465,0,0,1,2166.385,392.248Z" transform="translate(-2156.807 -348.232)"/><path d="M2178.763,327.863a1.366,1.366,0,0,1,1.333.276,2.516,2.516,0,0,1,.438,2.049,1.558,1.558,0,0,1-.829,1.236,1.481,1.481,0,0,1-1.545-.293,2.58,2.58,0,0,1-.276-2.343A1.542,1.542,0,0,1,2178.763,327.863Z" transform="translate(-2165.069 -306.646)"/><path class="b" d="M2183.309,369.734a20.277,20.277,0,0,0,2.521-5.286c.065-.081.2-.065.276-.048a36.7,36.7,0,0,0,6.147.5c.342.016.488.342.651.57a6.434,6.434,0,0,0,2.487,2.537,9.5,9.5,0,0,0,2.179.813,22.939,22.939,0,0,1,.716,3.675,45.99,45.99,0,0,1,.422,6.017.414.414,0,0,1-.2.244,27.229,27.229,0,0,1-3.3.147,78.936,78.936,0,0,1-9.627-.2,4.435,4.435,0,0,1-3.593-2.179,4.571,4.571,0,0,1-.391-2.879A15.014,15.014,0,0,1,2183.309,369.734Z" transform="translate(-2167.518 -330.467)"/><path class="a" d="M2189.006,366.233" transform="translate(-2172.386 -331.628)"/><path d="M2191.322,369.455c.684-1.61,2.278-3.155,4.115-3.138a4.006,4.006,0,0,1,3.724,2.341c.878,1.545.666,3.447.634,5.22a2.641,2.641,0,0,1,.57,2.651,2.687,2.687,0,0,1-1.984,1.69,3.817,3.817,0,0,1-3.968,1.48,4.435,4.435,0,0,1-3.138-2.13,9.2,9.2,0,0,1-.8-4.212A11.553,11.553,0,0,1,2191.322,369.455Z" transform="translate(-2173.336 -331.717)"/><path class="a" d="M2194.105,386.453a1.409,1.409,0,0,1,.586-.114,57.938,57.938,0,0,1,6.114.228c.13.292-.1.568.066.845a1.637,1.637,0,0,1,.618,1.756c-.2.748-1.042.618-1.579.894a2.606,2.606,0,0,1-2.293,1.431,3.381,3.381,0,0,1-2.927-1.789A5.76,5.76,0,0,1,2194.105,386.453Z" transform="translate(-2175.681 -344.714)"/><path d="M2205,337.789a2.944,2.944,0,0,1,2.927.147,1.4,1.4,0,0,1,.7,1.106,1.513,1.513,0,0,1-.715,1.431,3.216,3.216,0,0,1-3.09-.131,1.348,1.348,0,0,1-.617-1.464A1.445,1.445,0,0,1,2205,337.789Z" transform="translate(-2182.233 -312.938)"/><path class="c" d="M2207.417,340.158a1.66,1.66,0,0,1,1.8.325c.163.131.146.325.179.5a.629.629,0,0,1-.407.488,1.936,1.936,0,0,1-1.854-.2.538.538,0,0,1-.179-.6A.947.947,0,0,1,2207.417,340.158Z" transform="translate(-2184.016 -314.607)"/><path class="b" d="M2211.476,271.6a2.642,2.642,0,0,1,2.6-.7,5.762,5.762,0,0,1,2.944,3.545c.049.179.146.342.178.52a5.536,5.536,0,0,0-1.008.424c-.146-.065-.26-.244-.422-.326a2.326,2.326,0,0,0-2.5-.048,2.361,2.361,0,0,0,.243,4.163,2.069,2.069,0,0,0,.635.179,8.265,8.265,0,0,0,.227.959c0,.049-.048.049-.064.066-1.382.52-3.334,1.024-4.635-.017-1.48-1.35-.862-3.708-.358-5.351A8.73,8.73,0,0,1,2211.476,271.6Z" transform="translate(-2185.196 -269.604)"/><path class="d" d="M2217.942,366c.683-.049,1.366-.016,2.065-.016a.354.354,0,0,1,.2.211,12.242,12.242,0,0,1,.585,1.9c0,.05.017.13-.065.163a5.035,5.035,0,0,1-2.862-2.033C2217.812,366.159,2217.812,366,2217.942,366Z" transform="translate(-2191.093 -331.461)"/><path class="b" d="M2222.424,285.394a1.17,1.17,0,0,1,1.252.147v.049a3.994,3.994,0,0,0-1.008,1.984,1.206,1.206,0,0,1-.879-.975A1.183,1.183,0,0,1,2222.424,285.394Z" transform="translate(-2193.655 -279.003)"/><path class="b" d="M2229.245,286.019a2.934,2.934,0,0,1,3.171.667,2.894,2.894,0,0,1,.6,3.09,2.862,2.862,0,0,1-2.618,1.8,2.9,2.9,0,0,1-1.155-5.562Z" transform="translate(-2197.355 -279.351)"/><path class="a" d="M2232.557,378.473a3.591,3.591,0,0,1,1.838-.7,4.488,4.488,0,0,1,2.895.6,5.144,5.144,0,0,1,2.146,4.83,4.346,4.346,0,0,1-1.626,3.057,4.718,4.718,0,0,1-2.845.992,6.273,6.273,0,0,1-1.561.016c-.033-.032-.05-.032-.082-.065a56.847,56.847,0,0,0-.375-6.049C2232.833,380.262,2232.671,379.367,2232.557,378.473Z" transform="translate(-2200.65 -339.141)"/><path d="M2234.37,328.127a1.627,1.627,0,0,1,1.236.081,2.049,2.049,0,0,1,.651,1.919,1.76,1.76,0,0,1-1.041,1.561,1.315,1.315,0,0,1-1.431-.537,2.589,2.589,0,0,1-.276-1.789A1.713,1.713,0,0,1,2234.37,328.127Z" transform="translate(-2201.244 -306.813)"/><path class="a" d="M2235.846,277.411a14.3,14.3,0,0,1,2.6-1.154c.065.081.115-.032.163-.049a11.251,11.251,0,0,1,2.992-.6,1.382,1.382,0,0,1,.731.212,6.929,6.929,0,0,1,1.025,2.959c.016.032-.033.016-.05.032a9,9,0,0,0-4.406.619c-.146-.066-.228-.26-.374-.359a4.138,4.138,0,0,0-2.536-1.089A5.739,5.739,0,0,1,2235.846,277.411Z" transform="translate(-2202.785 -272.728)"/><path class="b" d="M2241.775,293.543c.2-.129.407-.292.586-.439a2.055,2.055,0,0,0,2.163.341,2.069,2.069,0,0,0,.325-3.611,2.174,2.174,0,0,0-1.2-.341,5.214,5.214,0,0,0-.26-1.023,7.288,7.288,0,0,1,4.456-.326,1.265,1.265,0,0,1,.91.975,6.6,6.6,0,0,1-.585,3.643c-.732,1.366-1.984,3.334-3.854,3.106a3.548,3.548,0,0,1-2.537-2.276Z" transform="translate(-2206.633 -280.729)"/><path class="b" d="M2246.144,295.786a.786.786,0,0,1,.7.26.828.828,0,0,1,.212.8.95.95,0,0,1-.585.634.785.785,0,0,1-.845-.244A4.408,4.408,0,0,0,2246.144,295.786Z" transform="translate(-2209.131 -285.843)"/><path d="M2267.247,338.665c.032,0,.016.016.016.032C2267.247,338.7,2267.231,338.665,2267.247,338.665Z" transform="translate(-2223.16 -313.713)"/><g transform="translate(18.772 35.952)"><path class="b" d="M2202.322,372.944a2.015,2.015,0,0,0-.332-.447l-3.885-.086a4.035,4.035,0,0,0-.478.583c-.083.12-.159.246-.231.373l5.171.1C2202.5,373.306,2202.423,373.135,2202.322,372.944Z" transform="translate(-2196.603 -371.602)"/><path class="b" d="M2201.619,378.282c-.022-.131-.043-.259-.068-.391l-5.886-.119c-.058.147-.106.283-.145.4s-.082.271-.116.414l6.262.151A3.965,3.965,0,0,0,2201.619,378.282Z" transform="translate(-2195.311 -375.081)"/><path class="d" d="M2201.02,370.116a2.6,2.6,0,0,0-1.6.8l3.885.086A2.946,2.946,0,0,0,2201.02,370.116Z" transform="translate(-2197.914 -370.106)"/><path class="d" d="M2201.757,375.235l-5.171-.1a7.784,7.784,0,0,0-.438.925l5.885.119A4.5,4.5,0,0,0,2201.757,375.235Z" transform="translate(-2195.793 -373.37)"/><path class="d" d="M2195.164,380.782a7.563,7.563,0,0,0,1.006,0c.458-.01,1.576.01,2.358.052s2.962.18,2.962.18a7.154,7.154,0,0,0,0-.774l-6.262-.151C2195.15,380.432,2195.106,380.763,2195.164,380.782Z" transform="translate(-2195.138 -376.585)"/></g></g><g transform="translate(2190.005 282.42)"><path d="M2281.6,331.883a3.168,3.168,0,0,1,.407-.178,3.052,3.052,0,0,1,.819-1.46,8.851,8.851,0,0,1-.6-.913,6.415,6.415,0,0,1-.846-4.459,11.018,11.018,0,0,1,1.607-3.734.582.582,0,0,0-.031-.407c-.967-2.735-1.685-6.559.323-9.057a4.1,4.1,0,0,1,4.281-.928,4.656,4.656,0,0,1,2.932,3.1,10.943,10.943,0,0,1,.77-1.51,3.616,3.616,0,0,1,3.1-1.762,4.017,4.017,0,0,1,3.587,1.882,7.8,7.8,0,0,1,.583,5.3,1.809,1.809,0,0,1,.239,1.741,1.914,1.914,0,0,1-1.142,1.02c-.343.324.111.684.175,1.009,1.407,2.152,2.08,5.227.885,7.7-.164.227-.279.5-.458.714.081.13.243.18.356.31a3.287,3.287,0,0,1,.808,1.369c2.082-.075,4.226.47,5.358,2.377a5.087,5.087,0,0,1,.477,3.237,4.83,4.83,0,0,1-2.566,3.6,7.323,7.323,0,0,1-4.036.685c-1.194,1.834-2.988,3.568-5.2,3.787a17.964,17.964,0,0,1-2.977.2c-2.114.009-4.179-.161-5.735-1.5-2.433-1.863-3.367-4.582-3.845-7.381a13.159,13.159,0,0,1-.2-3.106A2.12,2.12,0,0,1,2281.6,331.883Z" transform="translate(-2280.641 -310.524)"/><path class="d" d="M2284.175,374.1h.033a2.42,2.42,0,0,0,1.166,1.483,2.175,2.175,0,0,0,.779.442,3.578,3.578,0,0,0,3.548-.719,2.946,2.946,0,0,0,.818-1.445c1.61.006,3.041-.038,4.651-.017a3.009,3.009,0,0,0,2.009,2.171,3.507,3.507,0,0,0,3.891-1.125,3.452,3.452,0,0,0,.245-.422c0-.016.016.016.017,0a13.187,13.187,0,0,1-.374,4.439,8.841,8.841,0,0,1-3.907,5.808,9.035,9.035,0,0,1-4.166.734c-1.968-.023-4.065-.014-5.508-1.4-2.417-2.025-3.09-4.922-3.42-7.851A3.651,3.651,0,0,1,2284.175,374.1Z" transform="translate(-2282.765 -351.615)"/><path class="a" d="M2287.17,323.31c.2-.439-.177-.83-.256-1.237a12.48,12.48,0,0,1-.763-5.109,5.265,5.265,0,0,1,1.034-2.745,3.32,3.32,0,0,1,3.514-.426c1.915.95,2.135,3.1,2.471,4.953a2.243,2.243,0,0,0-.88.484,1.651,1.651,0,0,0-.492,1.462,1.913,1.913,0,0,0,.743,1.205,3.686,3.686,0,0,0,1.233.672c-.032.179-.147.373-.2.552a1.9,1.9,0,0,0,.514,2.116,1.959,1.959,0,0,0,1.723.266,2.911,2.911,0,0,0,1.288-1h.049a2.659,2.659,0,0,0,2.028,1.292,1.741,1.741,0,0,0,1.433-.679c.889,1.776,1.124,4.412-.118,6.1a1.7,1.7,0,0,1-.147.194,3.7,3.7,0,0,0-2.408.122,3.034,3.034,0,0,0-1.8,1.961c-1.464.028-3.155.021-4.683.032a3.782,3.782,0,0,0-.549-1.075,3.488,3.488,0,0,0-3.346-1.134c-.261.1-.538.145-.8.258a5.57,5.57,0,0,1-1.285-4.656A9.628,9.628,0,0,1,2287.17,323.31Z" transform="translate(-2283.717 -312.447)"/><path class="a" d="M2288.449,366.865a2.616,2.616,0,0,1,2.7.579,1.807,1.807,0,0,1,.482,1.644,2.221,2.221,0,0,1-1.876,1.555,2.509,2.509,0,0,1-2.517-1.1,1.784,1.784,0,0,1,.006-1.691A2.249,2.249,0,0,1,2288.449,366.865Z" transform="translate(-2284.786 -346.992)"/><path d="M2296.05,353.189a.673.673,0,0,1,.7.068,1.333,1.333,0,0,1,.109,1.366.6.6,0,0,1-.408.275.879.879,0,0,1-.634-.2,1.435,1.435,0,0,1-.093-1.236A.763.763,0,0,1,2296.05,353.189Z" transform="translate(-2290.368 -338.171)"/><path class="c" d="M2297.569,379.05a2.055,2.055,0,0,1,1.821.137c.065-.178-.031-.39,0-.585a1.746,1.746,0,0,1,.818-1.493,1.483,1.483,0,0,1,1.448-.076,1.731,1.731,0,0,1,.889,1.548,2.393,2.393,0,0,1-.166.78,3.193,3.193,0,0,1,1.237-.354,1.5,1.5,0,0,1,1.429.737,1.535,1.535,0,0,1-.038,1.561,2.966,2.966,0,0,1-1.646,1.035,1.913,1.913,0,0,1,.806,1.987,1.81,1.81,0,0,1-1.517,1.23,1.7,1.7,0,0,1-1.542-.835,2.736,2.736,0,0,1-.274-.748.056.056,0,0,0-.032.016,2.13,2.13,0,0,1-1.7,1.409,1.318,1.318,0,0,1-1.412-.64,1.692,1.692,0,0,1-.044-1.577,3.2,3.2,0,0,1,.916-.956c-.115-.081-.31-.05-.439-.083a2,2,0,0,1-1.54-1.485c-.177-.554.264-.959.574-1.348C2297.292,379.212,2297.438,379.131,2297.569,379.05Z" transform="translate(-2290.964 -353.589)"/><path d="M2303.292,359.73c.424-.226.8.263,1.22.085.146-.13.309-.226.293-.438-.211-.131-.519-.327-.583-.62a.618.618,0,0,1,.23-.682,1.545,1.545,0,0,1,1.285-.012.7.7,0,0,1,.028,1.172c-.1.065-.244.047-.293.194,0,.195.194.31.341.391.487.148.781-.387,1.236-.207a.3.3,0,0,1,.145.326,1.329,1.329,0,0,1-1.27.565,4.538,4.538,0,0,0-2.438-.2.582.582,0,0,1-.259-.391A.221.221,0,0,1,2303.292,359.73Z" transform="translate(-2295.297 -341.289)"/><path class="b" d="M2306.172,326.156a2.889,2.889,0,0,1,2.374.285.235.235,0,0,0,.179-.081,8.812,8.812,0,0,1,.1-1.594c.132-.455.394-1.055.963-1.119a1.107,1.107,0,0,1,1.056.411,3.159,3.159,0,0,1,.349,2.262.224.224,0,0,0,.1.114,9.283,9.283,0,0,0,.912-.224,2.021,2.021,0,0,1,1.917.414,1.052,1.052,0,0,1,.256,1.009c-.262.764-1.108.809-1.759.986a.19.19,0,0,0-.115.227,5.02,5.02,0,0,1,.712,1.092,1.4,1.4,0,0,1-.136,1.463,1.146,1.146,0,0,1-1.2.142,3.125,3.125,0,0,1-1.409-1.582c-.049-.065-.147-.049-.228-.082-.277.162-.295.5-.523.73a1.7,1.7,0,0,1-1.629.84.977.977,0,0,1-.714-.636,2.509,2.509,0,0,1,.527-1.885.176.176,0,0,0-.032-.212,1.977,1.977,0,0,0-.617-.214c-.634-.23-1.494-.59-1.6-1.388A.979.979,0,0,1,2306.172,326.156Z" transform="translate(-2296.869 -319.029)"/><path class="d" d="M2306.825,387.335a1.181,1.181,0,0,1,1.139-.028,1.166,1.166,0,0,1,.419.977,1.153,1.153,0,0,1-.848.827.964.964,0,0,1-.925-.458A1.029,1.029,0,0,1,2306.825,387.335Z" transform="translate(-2297.396 -360.271)"/><path class="a" d="M2311.757,314.574a2.464,2.464,0,0,1,1.776-.953,3.065,3.065,0,0,1,2.939,1.425,6.763,6.763,0,0,1,.538,4.034,3.175,3.175,0,0,0-1.9-.039,2.153,2.153,0,0,0-1.926-2.641,1.8,1.8,0,0,0-1.286.516,3.06,3.06,0,0,0-.739,2.03c-.228-.017-.406-.147-.65-.148-.017,0,0-.017-.017-.032A6.3,6.3,0,0,1,2311.757,314.574Z" transform="translate(-2300.013 -312.529)"/><path d="M2315.674,332.625a1.22,1.22,0,0,1,1.2.021,1.176,1.176,0,0,1,.517.993,1.1,1.1,0,0,1-.572.941,1.17,1.17,0,0,1-1.252-.134,1.211,1.211,0,0,1-.4-1.075A1.142,1.142,0,0,1,2315.674,332.625Z" transform="translate(-2303.04 -324.772)"/><path class="e" d="M2316.93,333.773a.709.709,0,0,1,.683.165.557.557,0,0,1,.192.6.672.672,0,0,1-.489.486.648.648,0,0,1-.7-.279.7.7,0,0,1-.046-.65A.846.846,0,0,1,2316.93,333.773Z" transform="translate(-2303.923 -325.593)"/><path d="M2317.7,354.018a.794.794,0,0,1,.667-.063,1,1,0,0,1,.4.847.894.894,0,0,1-.441.86.721.721,0,0,1-.634-.051,1.194,1.194,0,0,1-.224-1.286A.692.692,0,0,1,2317.7,354.018Z" transform="translate(-2304.485 -338.681)"/><path class="a" d="M2319.551,367a2.712,2.712,0,0,1,2.634.123,1.964,1.964,0,0,1,.9,1.629,2.05,2.05,0,0,1-1.485,1.784,2.6,2.6,0,0,1-2.649-.595,1.864,1.864,0,0,1-.318-2.05A2.294,2.294,0,0,1,2319.551,367Z" transform="translate(-2305.187 -346.994)"/><path class="d" d="M2333.971,380.43a3.135,3.135,0,0,0,3.031-1.567,2.863,2.863,0,0,0-.38-3.059,2.374,2.374,0,0,0-1.819-.64,3,3,0,0,0-.223-1.2c.016-.048.1-.031.13-.015a3.906,3.906,0,0,1,3.6,2.207,4.338,4.338,0,0,1-.615,3.787,4.472,4.472,0,0,1-3.452,1.581,1.928,1.928,0,0,1-.684,0C2333.708,381.16,2333.856,380.8,2333.971,380.43Z" transform="translate(-2314.986 -351.673)"/><path class="a" d="M2336.117,380.813a1.19,1.19,0,0,1,1.137.361,1.8,1.8,0,0,1,.142,1.48,1.827,1.827,0,0,1-1.679,1.067c-.033.016-.033-.032-.049-.032A16.654,16.654,0,0,0,2336.117,380.813Z" transform="translate(-2316.354 -356.135)"/></g></g></svg>