<svg xmlns="http://www.w3.org/2000/svg" width="50" height="65" viewBox="0 0 50 65"><defs><style>.a{fill:#313133;}.b{fill:#3abcda;}.c{fill:#dad800;}</style></defs><g transform="translate(-339.607 -763.407)"><path class="a" d="M389.393,811.069a1.5,1.5,0,0,0-.578-.939,14.7,14.7,0,0,0-16.513-.656h0a14.792,14.792,0,0,0-4.906,4.987v-8.769a17.8,17.8,0,0,0,10.733-5.3c7.726-8.622,5-17.12,2.949-20.672a8,8,0,0,0-4.495-14.608,6.632,6.632,0,0,0-5.019,2.28,6.7,6.7,0,0,0-6.528-3.984,6.775,6.775,0,0,0-6.523,4,6.626,6.626,0,0,0-5.032-2.3,8,8,0,0,0-4.495,14.6c-1.6,2.549-5.111,11.909,2.951,20.675a17.726,17.726,0,0,0,9.877,5.175v8.9a14.807,14.807,0,0,0-4.9-4.987h0a14.7,14.7,0,0,0-16.514.656,1.47,1.47,0,0,0-.576.939,14.78,14.78,0,0,0,22.121,15.236,2.771,2.771,0,0,0,5.329,0,14.781,14.781,0,0,0,22.123-15.236Z" transform="translate(0 0)"/><path class="b" d="M349.275,779.052a1.474,1.474,0,0,0-.648-2.2,5.087,5.087,0,0,1,1.913-9.782,4.145,4.145,0,0,1,3.925,3.322,1.456,1.456,0,0,0,2.838,0c.759-3.188,1.775-5.034,4.752-5.034,3.309,0,4.058,2.088,4.758,5.034a1.458,1.458,0,0,0,2.841,0,4.14,4.14,0,0,1,3.922-3.322,5.087,5.087,0,0,1,1.916,9.782,1.458,1.458,0,0,0-.847.941,1.493,1.493,0,0,0,.2,1.255c5.19,7.747.966,15.829-1.828,18.384a15.435,15.435,0,0,1-21.915,0C348.332,794.955,344.108,786.873,349.275,779.052Z" transform="translate(2.977 0.988)"/><path class="c" d="M356.548,812.117a.73.73,0,0,1-.727-.73V791.631c.384.024,1.025,0,1.456.03v19.725A.73.73,0,0,1,356.548,812.117Z" transform="translate(8.058 14.122)"/><path class="c" d="M359.99,807.865a11.856,11.856,0,0,1-18.316-11.328,11.858,11.858,0,0,1,12.787-.2C361.232,800.856,360.046,807.391,359.99,807.865Z" transform="translate(0.997 15.604)"/><path class="c" d="M371.628,808.068a11.84,11.84,0,0,1-12.785-.2c-.059-.474-1.319-6.913,5.528-11.531a11.855,11.855,0,0,1,12.785.2A11.822,11.822,0,0,1,371.628,808.068Z" transform="translate(9.383 15.604)"/></g></svg>