<svg xmlns="http://www.w3.org/2000/svg" width="65.121" height="65.017" viewBox="0 0 65.121 65.017"><defs><style>.a{fill:#fff9bf;stroke:#3c2b34;stroke-width:3px;}.b{fill:#ffa800;}</style></defs><g transform="translate(1.5 1.502)"><path class="a" d="M1724.1,293.405c2.478,2.677,4.962,9.67,2.554,14.435,4.938-2.257,11.465-2.8,16.16.2,3.338,2.922,5.369,7.6,3.9,11.993-.5,3.246-3.9,6.381-6.145,7.5a13.2,13.2,0,0,1-4.162,1.377c-1.039.185-1.544.3-2.165.412,2.257,2.724,4.815,5.612,5.5,9.239,1,3.9-.488,6.929-2.27,9.892-3.254,3.86-8.978,4.828-13.641,3.373-4.364-1.28-6.587-5.944-8.181-9.985-1.678,3.052-3.8,6.625-7.161,8.069-3.494,2.138-8.864,2.685-12.274.058a9.648,9.648,0,0,1-5.247-8.481c-.062-5.431,3.944-9.552,8.024-12.806-1.682-.442-3.535-.672-5.318-1.2a12.749,12.749,0,0,1-8.479-11.222,11.694,11.694,0,0,1,5.387-9.67,14.627,14.627,0,0,1,14.506.047c.668.45.109-1.1,0-2.328-.458-5.093,2.82-10.784,6.293-12.653a11.784,11.784,0,0,1,11.211.491A11.367,11.367,0,0,1,1724.1,293.405Z" transform="translate(-1685.203 -290.466)"/><path class="b" d="M1709.841,305.609a6.832,6.832,0,0,1,.432,6.169c-.988,2.357-2.357,4.05-4.367,4.647a7.016,7.016,0,0,1-6.566-1.255c-2.023-1.828-2.544-2.815-2.772-5.147-.043-2.828,1.58-6.178,4.5-7.213A7.444,7.444,0,0,1,1709.841,305.609Z" transform="translate(-1672.236 -276.772)"/></g></svg>