<svg xmlns="http://www.w3.org/2000/svg" width="63" height="65" viewBox="0 0 63 65"><defs><style>.a{fill:#fff;}.b{fill:#e4003f;}.c{fill:#ffd400;}.d{fill:#ef9bc2;}</style></defs><path d="M2142.145,295.182a12.957,12.957,0,0,1,3.4-.654c.468-.043.872-.1,1.341-.148.447-.295.169-.907.276-1.37a19,19,0,0,1,2.766-9.174,18.26,18.26,0,0,1-1.042-5.484,13.819,13.819,0,0,1,.531-3.311,10.291,10.291,0,0,1,1.98-3.712c1.745-1.477,4.3-.57,6.233-.126a31.424,31.424,0,0,1,5.617,2.235,27.31,27.31,0,0,1,4.958-.781c1.32.042,2.68-.042,4.042.042,1.235-2.362,3.234-5.336,6.319-5.293,2.468.021,4.341,2.109,5.426,4.112a31.427,31.427,0,0,1,4.765-1.771,13.153,13.153,0,0,1,4.808-.57c1.553.253,1.936,2,2.384,3.206a29.836,29.836,0,0,1,.617,3.375,3.58,3.58,0,0,1,1.786,3.712,12.908,12.908,0,0,1-.276,2.214,10.417,10.417,0,0,1-1.426,3.269,23.557,23.557,0,0,1,2.277,7.361c.34.4,3.664.35,4.723.379.9.131,1-.058,1,.786-.043.7-4.213.29-5.532.691-.3.233-.107.654-.171.971-.021.927-.234,1.771-.255,2.678.573.611,3.681,1.012,4.361,1.392a.712.712,0,0,1,.022.654c-.447.3-1.129.147-1.618.17a19.518,19.518,0,0,0-2.958-.254c-.51.106-.383.7-.573,1.056-.341.8-.66,1.623-1.042,2.4a.3.3,0,0,0,.191.275c1.3.717,2.723,1.181,3.958,2.025a.767.767,0,0,1,.3.78.927.927,0,0,1-.532.485,16.485,16.485,0,0,1-3.085-1.139,5,5,0,0,0-1.915-.569,23.41,23.41,0,0,1-2.042,2.087,21.806,21.806,0,0,1-5.382,3.1c-.469.106-.873.359-1.32.464a54.751,54.751,0,0,1-5.34,1.223.437.437,0,0,0-.086.105c.34,1.455.766,2.911,1.17,4.344a.268.268,0,0,0,.255,0,9.98,9.98,0,0,1,2.618-.7,7.711,7.711,0,0,1,7.659,3.754,8.854,8.854,0,0,1-.277,9.342c-1.765,2.679-4.873,3.269-7.851,3.332-1.446.128-2.871.128-4.3.148-2.639.021-5.383.041-8,.106-2.3-.064-4.468-.085-6.723-.169-.83-.042-1.744-.147-2.617-.253a50.612,50.612,0,0,1-8-.253c-1.808-.254-3.766-.8-4.7-2.595a4.5,4.5,0,0,1,.32-4.451c1.7-2.045,4.341-2.32,6.83-2.741.66-.317.7-1.076.979-1.645,1.192-2.911,3.639-5.336,4.4-8.436a.789.789,0,0,0-.277-.865,23.208,23.208,0,0,1-5.02-1.434,17.909,17.909,0,0,1-5.7-3.247c-.063.02-.128-.022-.191,0a26.864,26.864,0,0,0-4.34,2.467,1.534,1.534,0,0,1-.979.127c-.256-.169-.192-.527-.192-.781.234-.569,3.383-2.467,4.276-3.1-.021-.38-.425-.61-.574-.949-.405-.653-.829-1.266-1.192-1.94-.7-.7-3.532.381-4.128,0a.974.974,0,0,1-.021-.843,14.046,14.046,0,0,1,3.021-1.118c.32-.1.086-.379.064-.569-.361-1.076-.511-2.236-.851-3.333-.234-.379-.744-.231-1.149-.231a30.887,30.887,0,0,1-4.213.337.475.475,0,0,1-.277-.358A.835.835,0,0,1,2142.145,295.182Z" transform="translate(-2141.654 -267.406)"/><path class="a" d="M2159.509,292.376a19.468,19.468,0,0,1,2.281-3.9,1.183,1.183,0,0,0,.106-.762,1.207,1.207,0,0,0-.532-.445c-.427-.085-.7.255-1.044.4a6.176,6.176,0,0,1-.746-2.562,9.348,9.348,0,0,1,1.769-6.014c.852-.889,2.407-.528,3.474-.317a24.163,24.163,0,0,1,6.2,2.477c1.129.634,2.344-.128,3.515-.212a28.391,28.391,0,0,1,5.71-.233c.043.148-.085.317-.106.487-.554,2.1-.767,4.765.619,6.565,1.448,2.033,4.112,2.2,6.371,1.694a16.021,16.021,0,0,0,2.279-.741,5.321,5.321,0,0,0,5.582,1.927,7.972,7.972,0,0,0,1.939,2.731,4.96,4.96,0,0,0,4.9.974,6.326,6.326,0,0,0,2.365-1.694,10.333,10.333,0,0,1,1,2.267,16.425,16.425,0,0,1,.725,3.41.43.43,0,0,1-.213.423,11.07,11.07,0,0,1-1.492.3c-.49.147-1.022.254-1.492.445a.753.753,0,0,0-.256.677.98.98,0,0,0,.768.509c.746-.128,1.512-.211,2.257-.339a.655.655,0,0,1,.448.128,8.4,8.4,0,0,1-.022,1.46c-.064.614-.149,1.25-.256,1.863-.171.3-.244.215-.873.17-.49.106-1.194-.022-1.343.593.191.636.9.7,1.427.847.108.063.236.128.278.276a11.906,11.906,0,0,1-1.364,3.05c-.724.38-1.577-.361-2.279.148a1.264,1.264,0,0,0-.171.55c.192.551.831.615,1.236.932.042.043,0,.085-.021.149a11.208,11.208,0,0,1-3.41,2.858,20,20,0,0,1-6.583,2.414,37.759,37.759,0,0,1-10.078.741,56.578,56.578,0,0,1-12.528-1.8,20.718,20.718,0,0,1-6.691-3.2c-.063-.043-.042-.149-.02-.212.447-.466,1.17-.509,1.511-1.1a.85.85,0,0,0-.4-.762,4.809,4.809,0,0,0-2.023.551,1.011,1.011,0,0,1-1.045-.275,10.643,10.643,0,0,1-1.577-2.435c.022-.128.149-.192.234-.234.554-.147,1.087-.338,1.6-.529.084-.063.191-.127.213-.233a.617.617,0,0,0-.256-.635c-.554-.212-1.214.084-1.854,0a.65.65,0,0,1-.617-.063,8.782,8.782,0,0,1-.852-2.9v-.634c0-.021.02-.021.02-.044a5.5,5.5,0,0,1,1.663-.02c.533-.064,1.428.211,1.6-.53.021-.656-.746-.635-1.172-.825-.66-.021-1.3-.213-1.981-.233a.652.652,0,0,1-.427-.36A18.752,18.752,0,0,1,2159.509,292.376Z" transform="translate(-2150.458 -273.443)"/><path class="a" d="M2166.8,392.4a11.994,11.994,0,0,1,3.05-.636c.211.042.466,0,.7.021a7.465,7.465,0,0,0,1.863,5.909c.022.063-.064.063-.106.063-2.159.212-4.489.19-6.31-.91a2.439,2.439,0,0,1-.953-2.457A3.209,3.209,0,0,1,2166.8,392.4Z" transform="translate(-2154.273 -335.188)"/><path d="M2179.074,327.887a1.778,1.778,0,0,1,1.736.36,3.276,3.276,0,0,1,.571,2.668,2.028,2.028,0,0,1-1.079,1.609,1.928,1.928,0,0,1-2.012-.381,3.359,3.359,0,0,1-.36-3.051A2.008,2.008,0,0,1,2179.074,327.887Z" transform="translate(-2161.16 -300.309)"/><path class="b" d="M2183.854,371.35a26.406,26.406,0,0,0,3.282-6.883c.084-.105.254-.085.36-.063a47.791,47.791,0,0,0,8.005.656c.445.021.635.445.847.742a8.378,8.378,0,0,0,3.239,3.3,12.381,12.381,0,0,0,2.838,1.059,29.867,29.867,0,0,1,.932,4.786,59.949,59.949,0,0,1,.55,7.835.539.539,0,0,1-.254.318,35.454,35.454,0,0,1-4.3.191,102.8,102.8,0,0,1-12.537-.255,5.775,5.775,0,0,1-4.679-2.838,5.953,5.953,0,0,1-.509-3.749A19.554,19.554,0,0,1,2183.854,371.35Z" transform="translate(-2163.158 -320.327)"/><path class="a" d="M2189.006,366.233" transform="translate(-2167.261 -321.247)"/><path d="M2191.578,370.4c.89-2.1,2.966-4.108,5.358-4.087a5.216,5.216,0,0,1,4.85,3.049c1.144,2.012.867,4.489.825,6.8a3.439,3.439,0,0,1,.742,3.452,3.5,3.5,0,0,1-2.584,2.2,4.97,4.97,0,0,1-5.167,1.928,5.774,5.774,0,0,1-4.087-2.774,11.978,11.978,0,0,1-1.038-5.485A15.041,15.041,0,0,1,2191.578,370.4Z" transform="translate(-2168.025 -321.372)"/><path class="a" d="M2194.112,386.487a1.836,1.836,0,0,1,.764-.148,75.459,75.459,0,0,1,7.962.3c.17.38-.126.74.085,1.1a2.131,2.131,0,0,1,.805,2.287c-.256.974-1.356.8-2.056,1.164a3.394,3.394,0,0,1-2.986,1.864,4.4,4.4,0,0,1-3.811-2.329A7.5,7.5,0,0,1,2194.112,386.487Z" transform="translate(-2169.987 -332.245)"/><path d="M2205.248,337.886a3.834,3.834,0,0,1,3.812.191,1.819,1.819,0,0,1,.911,1.44,1.968,1.968,0,0,1-.931,1.864,4.187,4.187,0,0,1-4.024-.17,1.756,1.756,0,0,1-.8-1.906A1.882,1.882,0,0,1,2205.248,337.886Z" transform="translate(-2175.452 -305.584)"/><path class="c" d="M2207.566,340.194a2.162,2.162,0,0,1,2.35.423c.212.17.191.423.234.656a.819.819,0,0,1-.53.636,2.521,2.521,0,0,1-2.413-.255.7.7,0,0,1-.233-.783A1.233,1.233,0,0,1,2207.566,340.194Z" transform="translate(-2176.944 -306.98)"/><path class="b" d="M2212.3,271.849a3.441,3.441,0,0,1,3.388-.911c1.969.742,3.155,2.817,3.834,4.617.063.234.19.445.232.677a7.206,7.206,0,0,0-1.313.552c-.191-.085-.339-.318-.55-.424a3.03,3.03,0,0,0-3.261-.063,3.074,3.074,0,0,0,.317,5.421,2.694,2.694,0,0,0,.826.233,10.724,10.724,0,0,0,.3,1.249c0,.064-.062.064-.084.086-1.8.677-4.341,1.334-6.036-.021-1.927-1.758-1.122-4.829-.466-6.968A11.37,11.37,0,0,1,2212.3,271.849Z" transform="translate(-2177.905 -269.244)"/><path class="d" d="M2217.976,366c.889-.063,1.778-.021,2.689-.021a.46.46,0,0,1,.254.275,15.957,15.957,0,0,1,.763,2.477c0,.065.021.17-.085.212a6.555,6.555,0,0,1-3.727-2.647C2217.806,366.216,2217.806,366,2217.976,366Z" transform="translate(-2182.839 -321.112)"/><path class="b" d="M2222.619,285.43a1.524,1.524,0,0,1,1.63.191v.064a5.2,5.2,0,0,0-1.312,2.583,1.57,1.57,0,0,1-1.145-1.27A1.54,1.54,0,0,1,2222.619,285.43Z" transform="translate(-2184.978 -277.107)"/><path class="b" d="M2229.779,286.081a3.82,3.82,0,0,1,4.13.869,3.767,3.767,0,0,1,.782,4.024,3.728,3.728,0,0,1-3.409,2.35,3.778,3.778,0,0,1-1.5-7.243Z" transform="translate(-2188.042 -277.399)"/><path class="a" d="M2232.557,378.691a4.678,4.678,0,0,1,2.393-.91,5.844,5.844,0,0,1,3.77.783,6.7,6.7,0,0,1,2.795,6.289,5.658,5.658,0,0,1-2.117,3.982,6.143,6.143,0,0,1-3.705,1.292,8.17,8.17,0,0,1-2.033.021c-.042-.042-.064-.042-.106-.085a74.18,74.18,0,0,0-.487-7.877C2232.917,381.02,2232.705,379.855,2232.557,378.691Z" transform="translate(-2190.78 -327.583)"/><path d="M2234.641,328.153a2.118,2.118,0,0,1,1.609.106,2.668,2.668,0,0,1,.847,2.5,2.293,2.293,0,0,1-1.355,2.033,1.712,1.712,0,0,1-1.864-.7,3.37,3.37,0,0,1-.36-2.329A2.231,2.231,0,0,1,2234.641,328.153Z" transform="translate(-2191.294 -300.449)"/><path class="a" d="M2235.846,277.957a18.631,18.631,0,0,1,3.388-1.5c.085.106.149-.042.212-.063a14.653,14.653,0,0,1,3.9-.784,1.8,1.8,0,0,1,.953.276,9.028,9.028,0,0,1,1.335,3.854c.02.042-.043.021-.065.042a11.723,11.723,0,0,0-5.738.806c-.191-.086-.3-.339-.488-.467a5.389,5.389,0,0,0-3.3-1.418A7.443,7.443,0,0,1,2235.846,277.957Z" transform="translate(-2192.554 -271.858)"/><path class="b" d="M2241.774,295.239c.256-.169.531-.38.764-.571a2.675,2.675,0,0,0,2.816.444,2.694,2.694,0,0,0,.423-4.7,2.832,2.832,0,0,0-1.567-.444,6.766,6.766,0,0,0-.339-1.333,9.49,9.49,0,0,1,5.8-.424,1.647,1.647,0,0,1,1.185,1.27,8.6,8.6,0,0,1-.762,4.744c-.953,1.778-2.583,4.341-5.019,4.044a4.62,4.62,0,0,1-3.3-2.964Z" transform="translate(-2195.718 -278.551)"/><path class="b" d="M2246.3,295.79a1.022,1.022,0,0,1,.91.339,1.078,1.078,0,0,1,.276,1.038,1.237,1.237,0,0,1-.762.826,1.021,1.021,0,0,1-1.1-.318A5.744,5.744,0,0,0,2246.3,295.79Z" transform="translate(-2197.872 -282.864)"/><path d="M2267.249,338.665c.043,0,.021.021.021.042C2267.249,338.707,2267.228,338.665,2267.249,338.665Z" transform="translate(-2209.544 -306.228)"/><g transform="translate(24.578 46.73)"><path class="b" d="M2203.81,373.1a2.612,2.612,0,0,0-.433-.582l-5.058-.111a5.243,5.243,0,0,0-.623.76c-.109.156-.206.32-.3.486l6.734.128C2204.044,373.577,2203.942,373.354,2203.81,373.1Z" transform="translate(-2196.363 -371.357)"/><path class="b" d="M2203.5,378.436c-.029-.17-.057-.337-.089-.509l-7.665-.155c-.075.192-.138.369-.189.52s-.107.352-.151.539l8.154.2A5.21,5.21,0,0,0,2203.5,378.436Z" transform="translate(-2195.283 -374.268)"/><path class="d" d="M2201.5,370.119a3.387,3.387,0,0,0-2.089,1.041l5.06.112A3.837,3.837,0,0,0,2201.5,370.119Z" transform="translate(-2197.46 -370.106)"/><path class="d" d="M2203.453,375.264l-6.734-.128a10.089,10.089,0,0,0-.57,1.2l7.664.155A5.856,5.856,0,0,0,2203.453,375.264Z" transform="translate(-2195.687 -372.837)"/><path class="d" d="M2195.171,380.991a9.872,9.872,0,0,0,1.311,0c.6-.013,2.052.014,3.071.067s3.857.234,3.857.234a9.366,9.366,0,0,0,0-1.008l-8.154-.2C2195.153,380.535,2195.1,380.967,2195.171,380.991Z" transform="translate(-2195.137 -375.526)"/></g></svg>