<svg xmlns="http://www.w3.org/2000/svg" width="56.068" height="68.115" viewBox="0 0 56.068 68.115"><defs><style>.a{fill:#e4003f;}.a,.b{stroke:#3c2b34;stroke-width:3px;}.b{fill:#009858;}.c{fill:#fff;}</style></defs><g transform="translate(1.552 1.523)"><path class="a" d="M1716.256,337.892c4.319-3.366,7.9-4.467,12.145-4.574.59-.014,1.189.009,1.794.04a11.494,11.494,0,0,1,.743,1.455c.286.684-2.065,1.438-3.519,2.746-.939,1.023-1.288,1.636,0,1.928a64.622,64.622,0,0,0,10.92.6,2.777,2.777,0,0,1,1.357.534,34.451,34.451,0,0,0,5.157,5.657c.531.61,1.369-2.082,1.421-3.822.021-.332.5-.2.668-.273,1.911,1.011,3.8,1.916,5.789,2.8,1.286.477,3.328,1.391,2.988.513-.12-.309-.255-.61-.382-.916a12.42,12.42,0,0,1,2.66,5.016c2.544,8,.718,18.338-3.486,24.851-.847,1.313-.769,1.085-1.374,1.942-3.922,5.55-8.408,10.122-15.418,12.491a22.409,22.409,0,0,1-19.038-2.407c-1.621-.94-5.558-3.513-7.3-6.165a28.4,28.4,0,0,1-2.31-3.969,30.92,30.92,0,0,1-1.931-5.151C1704.208,359.873,1708.02,344.308,1716.256,337.892Z" transform="translate(-1706.161 -325.013)"/><path class="b" d="M1727.129,332.559c.809,4.126.828,3.753,1.623,4.183,3.449.629,6.646,1.158,10.087,1.958a.455.455,0,0,1,.127.775c-1.778,1.254-3.48,2.688-5.349,4.1-.594.529-.433.486-.237,1.177.639,2.08,1.644,3.755,2.379,5.67.345.886-1.725-.036-3.03-.517-2.02-.888-3.932-1.8-5.87-2.819-.173.074-.656-.06-.677.275-.052,1.754-.9,4.468-1.441,3.853a34.8,34.8,0,0,1-5.229-5.7,2.825,2.825,0,0,0-1.376-.538,65.906,65.906,0,0,1-11.073-.608c-1.307-.294-.953-.912,0-1.943,1.474-1.319,3.858-2.08,3.568-2.769a27.5,27.5,0,0,0-3.913-5.763c-.73-.917.055-.845.055-.845,3.638.3,7.414,1.122,11.126,1.682.953.079,1.879.56,2.388.06,0,0,4.562-4.3,5.2-4.707C1726.422,329.1,1726.868,331.408,1727.129,332.559Z" transform="translate(-1686.25 -329.845)"/><path class="c" d="M1720.2,345.458c.538,2.329-.687,4.384-2.149,6.081a3.338,3.338,0,0,1-3.02.673,3.766,3.766,0,0,1-2.1-3.193,6.26,6.26,0,0,1,4.059-5.287A2.756,2.756,0,0,1,1720.2,345.458Z" transform="translate(-1683.277 -310.857)"/><path class="c" d="M1714.858,345.947a6.713,6.713,0,0,1-3.114,6.534c-1.213.436-2.037-.4-2.826-1.02-.969-.912-.79-2.29-.469-3.6a5.676,5.676,0,0,1,3.353-3.458A2.327,2.327,0,0,1,1714.858,345.947Z" transform="translate(-1666.79 -309.995)"/><path class="c" d="M1723.955,350.094a3.653,3.653,0,0,1,.065,3.025c-.771,1.721-1.4,3.492-3.315,4.226a3.1,3.1,0,0,1-3.159-1.211c-1.01-1.589-.641-3.525.141-5.179a4.258,4.258,0,0,1,4.684-1.857A2.685,2.685,0,0,1,1723.955,350.094Z" transform="translate(-1696.679 -303.634)"/><path class="c" d="M1718.71,352.863c-.524,2.027-1.967,4.473-4.3,5.014a3.126,3.126,0,0,1-1.922-.541,3.256,3.256,0,0,1-1.1-2.956,6.084,6.084,0,0,1,3.762-4.626A2.779,2.779,0,0,1,1718.71,352.863Z" transform="translate(-1678.019 -302.664)"/></g></svg>