<svg xmlns="http://www.w3.org/2000/svg" width="31" height="25" viewBox="0 0 31 25"><defs><style>.a{fill:#fff;}</style></defs><path class="a" d="M28.526,5.438,31,3.028V2.5H22.431L16.324,17.984,9.376,2.5H.391v.528L3.281,6.571A1.247,1.247,0,0,1,3.672,7.6V21.526a1.607,1.607,0,0,1-.417,1.382L0,26.926v.521H9.229V26.92L5.974,22.908a1.656,1.656,0,0,1-.448-1.382V9.482l8.1,17.972h.942L21.535,9.482V23.8c0,.378,0,.455-.243.7l-2.506,2.47V27.5H30.943v-.528l-2.415-2.409a.738.738,0,0,1-.276-.7V6.141a.735.735,0,0,1,.275-.7Z" transform="translate(0 -2.5)"/></svg>