<svg xmlns="http://www.w3.org/2000/svg" width="111.681" height="78.878" viewBox="0 0 111.681 78.878"><defs><style>.a{fill:#f47257;}.b{fill:#3f964f;}.c{fill:#4ead60;}.d{fill:#50bfa5;}.e{fill:#3c8f7c;}.f{fill:#faba30;}.g{fill:#ff6e50;}.h{fill:#b75742;}.i{fill:#d94d2f;}.j{fill:#fad335;}.k{fill:#fff;}.l{fill:#ad5c4a;}.m{fill:#13375b;}.n{fill:#fad332;}.o{fill:#faba23;}.p{fill:#faee6c;}</style></defs><g transform="translate(-422.947 -8207.24)"><g transform="translate(428.956 8207.24)"><rect class="a" width="98.722" height="10.334" transform="translate(2.423 32.271)"/><g transform="translate(3.619 15.177)"><path class="b" d="M932,993.775a190.638,190.638,0,0,0-71.267-21.354l2.759-32.315a220.424,220.424,0,0,1,82.4,24.69Z" transform="translate(-860.736 -940.106)"/><path class="c" d="M888.163,994.466l1.88-20.154a4.62,4.62,0,0,0,5.23-3.829,218.81,218.81,0,0,1,69.088,20.7,4.912,4.912,0,0,0,2.519,6.151l-8.529,18.162a4.1,4.1,0,0,0-5.693,2.012,192.151,192.151,0,0,0-60.67-18.179A4.348,4.348,0,0,0,888.163,994.466Z" transform="translate(-885.975 -968.059)"/><g transform="translate(10.922 12.567)"><path class="d" d="M1274.529,1112.553a11.186,11.186,0,0,1-13.934,6.958,11.937,11.937,0,0,1-8.132-13.77c1.286-5.989,7.653-9.578,14.108-7.582S1276.533,1106.785,1274.529,1112.553Z" transform="translate(-1231.891 -1097.604)"/><path class="e" d="M1328.542,1155.223q.241-.968.481-1.935a10.477,10.477,0,0,1-2.339-1.1,1.249,1.249,0,0,1-.45-1.622l.036-.068a1.2,1.2,0,0,1,1.731-.422,7.7,7.7,0,0,0,2.145.993c1.172.328,2.089.116,2.3-.7.2-.77-.334-1.455-1.752-2.4-2.051-1.354-3.36-2.768-2.908-4.756.408-1.8,2.07-2.877,4.49-2.666l.475-1.937q1.068.3,2.133.6l-.457,1.789a9.853,9.853,0,0,1,1.894.844,1.243,1.243,0,0,1,.494,1.686h0a1.26,1.26,0,0,1-1.761.373,7.028,7.028,0,0,0-1.808-.8c-1.389-.395-1.979.057-2.118.627-.165.674.478,1.3,2.1,2.468,2.286,1.582,2.97,3.014,2.468,4.83-.5,1.8-2.207,2.931-4.645,2.663q-.268,1.037-.536,2.072Q1329.531,1155.5,1328.542,1155.223Z" transform="translate(-1299.887 -1135.35)"/><path class="d" d="M1014.789,1124.089q-8.511-1.964-17.172-3.2l.4-3.107q8.775,1.247,17.412,3.24Z" transform="translate(-997.617 -1116.176)"/><path class="d" d="M1581.6,1278.467q-7.92-3.873-16.1-7.048l1.035-2.941q8.291,3.217,16.329,7.147Z" transform="translate(-1520.188 -1254.844)"/></g></g><g transform="translate(4.919 0)"><path class="b" d="M957.395,781.767a172.149,172.149,0,0,0-64.464,28.343l-15.906-27.446a199.044,199.044,0,0,1,74.534-32.771Z" transform="translate(-877.025 -749.893)"/><path class="c" d="M942.455,839.343l-9.8-17.219a5.062,5.062,0,0,0,1.734-6.37,197.546,197.546,0,0,1,62.493-27.477,4.365,4.365,0,0,0,5.274,3.289l3.788,19.863a4.323,4.323,0,0,0-3.086,5.22,173.473,173.473,0,0,0-54.878,24.129A3.748,3.748,0,0,0,942.455,839.343Z" transform="translate(-928.215 -785.214)"/><g transform="translate(14.192 15.066)"><path class="b" d="M1297.084,945.991a12.054,12.054,0,0,1-6.422,14.393,10.362,10.362,0,0,1-13.648-5.776,11.635,11.635,0,0,1,6.2-15A10.059,10.059,0,0,1,1297.084,945.991Z" transform="translate(-1258.5 -938.715)"/><path class="f" d="M1356.923,997.214l-.719-1.844a9.119,9.119,0,0,1-2.335.617,1.135,1.135,0,0,1-1.233-1l-.011-.077a1.241,1.241,0,0,1,1.043-1.437,6.71,6.71,0,0,0,2.134-.574c1.047-.485,1.607-1.236,1.312-2.017-.28-.74-1.054-.945-2.624-.791-2.266.227-4.017-.064-4.787-1.932-.7-1.691-.07-3.6,1.835-4.975l-.725-1.842q.953-.444,1.909-.877l.656,1.713a8.6,8.6,0,0,1,1.867-.534,1.128,1.128,0,0,1,1.3,1.026h0a1.3,1.3,0,0,1-1.093,1.416,6.151,6.151,0,0,0-1.777.516c-1.245.57-1.429,1.3-1.215,1.845.252.641,1.075.731,2.921.625,2.566-.2,3.866.507,4.5,2.271a4.314,4.314,0,0,1-1.95,5.071l.755,1.988Q1357.805,996.8,1356.923,997.214Z" transform="translate(-1325.927 -977.132)"/><path class="d" d="M1070.777,1129.978q-7.373,3.851-14.45,8.379l-1.43-2.725q7.17-4.589,14.653-8.5Z" transform="translate(-1054.897 -1112.102)"/></g></g><g transform="translate(9.072 19.19)"><path class="b" d="M1008.961,1023.158a174.683,174.683,0,0,0-70.506,10.333l-9.375-30.781a201.973,201.973,0,0,1,81.521-11.948Q1009.781,1006.961,1008.961,1023.158Z" transform="translate(-929.08 -990.396)"/><path class="c" d="M977.849,1046.721l-5.706-19.264a4.873,4.873,0,0,0,3.2-5.705,200.449,200.449,0,0,1,68.351-10.018,4.608,4.608,0,0,0,4.463,4.582q-.436,10.114-.871,20.228a4.18,4.18,0,0,0-4.275,4.233,176.027,176.027,0,0,0-60.022,8.8A3.962,3.962,0,0,0,977.849,1046.721Z" transform="translate(-968.707 -1009.959)"/><g transform="translate(12.712 6.255)"><path class="b" d="M1360.775,1078.756a11.6,11.6,0,0,1-9.719,12.226,10.981,10.981,0,0,1-12.184-9.209,11.212,11.212,0,0,1,9.644-12.871A10.636,10.636,0,0,1,1360.775,1078.756Z" transform="translate(-1318.74 -1068.792)"/><path class="f" d="M1424.8,1123.969q-.142-.988-.284-1.976a9.417,9.417,0,0,1-2.459-.022,1.191,1.191,0,0,1-.988-1.3l.006-.077a1.206,1.206,0,0,1,1.369-1.114,6.917,6.917,0,0,0,2.249.01c1.151-.191,1.881-.77,1.771-1.6-.105-.79-.825-1.194-2.417-1.461-2.3-.381-3.967-1.128-4.3-3.139-.3-1.822.771-3.506,2.978-4.328q-.145-.987-.29-1.975,1.048-.177,2.1-.343.126.916.252,1.832a8.849,8.849,0,0,1,1.975-.022,1.184,1.184,0,0,1,1.05,1.338h0a1.262,1.262,0,0,1-1.413,1.081,6.338,6.338,0,0,0-1.882.028c-1.367.221-1.721.882-1.635,1.463.1.687.9.992,2.751,1.38,2.589.491,3.714,1.516,3.936,3.392a4.146,4.146,0,0,1-3.115,4.391l.285,2.125Q1425.77,1123.8,1424.8,1123.969Z" transform="translate(-1393.269 -1103.623)"/><path class="d" d="M1105.46,1211.3q-8.206,1.772-16.277,4.277l-.783-3.016q8.176-2.539,16.5-4.337Z" transform="translate(-1088.401 -1197.102)"/><path class="d" d="M1667.016,1157.618q-8.384-.227-16.744.3l-.164-3.13q8.47-.53,16.978-.3Z" transform="translate(-1605.289 -1147.582)"/></g></g><rect class="g" width="98.722" height="43.448" transform="translate(2.423 32.271)"/><path class="h" d="M1742.131,1559.848H1717.7a2.009,2.009,0,0,0-1.961,2.053h0a2.009,2.009,0,0,0,1.961,2.054h-3.168a2.009,2.009,0,0,0-1.961,2.054h0a2.009,2.009,0,0,0,1.961,2.053h.549a2.009,2.009,0,0,0-1.961,2.054,2.126,2.126,0,0,0,.165.825h28.843Z" transform="translate(-1640.986 -1495.221)"/><rect class="i" width="89.868" height="3.374" transform="translate(6.061 34.41)"/><rect class="i" width="41.903" height="1.12" transform="translate(7.202 43.364)"/><g transform="translate(63.758 17.465)"><circle class="f" cx="9.332" cy="9.332" r="9.332"/><path class="j" d="M1647.489,990.922a7.831,7.831,0,1,1-10.908-1.911A7.831,7.831,0,0,1,1647.489,990.922Z" transform="translate(-1631.747 -986.089)"/><g transform="translate(6.022 3.631)"><path class="k" d="M1694.129,1025.5l-.341-1.262a6.353,6.353,0,0,1-1.667.147.8.8,0,0,1-.754-.784v-.051a.794.794,0,0,1,.843-.8,4.632,4.632,0,0,0,1.508-.141c.757-.2,1.2-.637,1.052-1.168-.136-.5-.648-.709-1.721-.775-1.551-.094-2.7-.5-3.049-1.784a2.543,2.543,0,0,1,1.606-2.972l-.341-1.262,1.3-.352.316,1.169a5.869,5.869,0,0,1,1.259-.153.794.794,0,0,1,.794.785h0a.8.8,0,0,1-.812.806,4.23,4.23,0,0,0-1.212.15c-.863.234-1.042.681-.941,1.053.119.438.659.592,1.9.711,1.732.13,2.567.689,2.89,1.884a2.637,2.637,0,0,1-1.7,3.1l.366,1.355Z" transform="translate(-1689.915 -1014.286)"/></g></g><g transform="translate(68.696 43.467)"><circle class="f" cx="9.332" cy="9.332" r="9.332" transform="translate(0 13.197) rotate(-45)"/><path class="j" d="M1757.829,1365.238a7.831,7.831,0,1,1-10.908-1.911A7.831,7.831,0,0,1,1757.829,1365.238Z" transform="translate(-1738.222 -1356.539)"/><g transform="translate(9.887 7.496)"><path class="k" d="M1804.469,1399.813l-.341-1.262a6.35,6.35,0,0,1-1.667.147.8.8,0,0,1-.754-.784v-.051a.794.794,0,0,1,.843-.8,4.645,4.645,0,0,0,1.508-.142c.757-.2,1.2-.637,1.052-1.168-.136-.5-.648-.709-1.72-.775-1.551-.094-2.7-.5-3.049-1.784a2.543,2.543,0,0,1,1.605-2.972l-.341-1.262,1.3-.352.316,1.169a5.876,5.876,0,0,1,1.26-.153.794.794,0,0,1,.794.786h0a.8.8,0,0,1-.812.806,4.228,4.228,0,0,0-1.212.15c-.864.234-1.042.681-.941,1.053.119.438.659.592,1.9.711,1.732.13,2.567.689,2.89,1.884a2.637,2.637,0,0,1-1.7,3.1l.366,1.355Z" transform="translate(-1800.255 -1388.603)"/></g></g><g transform="translate(53.417 34.642)"><circle class="f" cx="9.332" cy="9.332" r="9.332" transform="matrix(1, -0.017, 0.017, 1, 0.853, 1.164)"/><circle class="j" cx="7.831" cy="7.831" r="7.831" transform="translate(0 6.372) rotate(-24.006)"/><g transform="translate(6.606 4.834)"><path class="k" d="M1568.954,1255.172l.446-1.229a6.341,6.341,0,0,1-1.449-.838.8.8,0,0,1-.167-1.075l.028-.042a.794.794,0,0,1,1.152-.174,4.629,4.629,0,0,0,1.315.75c.738.267,1.345.166,1.533-.352.178-.492-.123-.952-.963-1.623-1.215-.968-1.925-1.957-1.47-3.212a2.543,2.543,0,0,1,3.021-1.51l.446-1.229,1.268.46-.413,1.138a5.881,5.881,0,0,1,1.119.6.794.794,0,0,1,.2,1.1h0a.8.8,0,0,1-1.127.193,4.234,4.234,0,0,0-1.078-.573c-.841-.3-1.244-.041-1.375.321-.155.427.2.863,1.149,1.675,1.342,1.1,1.705,2.038,1.283,3.2a2.637,2.637,0,0,1-3.17,1.558l-.479,1.32Z" transform="translate(-1567.646 -1244.639)"/></g></g><path class="l" d="M1715.742,1561.9h0a2.009,2.009,0,0,0,1.961,2.054h-3.168a2.009,2.009,0,0,0-1.961,2.054h0a2.009,2.009,0,0,0,1.961,2.053h.549a1.88,1.88,0,0,0-.788.173h22.62v-8.387H1717.7A2.009,2.009,0,0,0,1715.742,1561.9Z" transform="translate(-1640.986 -1495.221)"/><g transform="translate(0 65.952)"><g transform="translate(-1 9.443)"><path class="m" d="M412.709,1682.929h0c0,.366.188.662.421.662H517.961c.232,0,.421-.3.421-.662h0c0-.366-.188-.662-.421-.662H413.13C412.9,1682.267,412.709,1682.563,412.709,1682.929Z" transform="translate(-412.709 -1682.267)"/></g><path class="f" d="M1774.04,1672h-25.227a1.833,1.833,0,0,1-1.833-1.833h0a1.833,1.833,0,0,1,1.833-1.833h25.227a1.833,1.833,0,0,1,1.833,1.833h0A1.833,1.833,0,0,1,1774.04,1672Z" transform="translate(-1672.647 -1661)"/><path class="j" d="M1767.613,1626.059h-25.227a1.833,1.833,0,0,1-1.833-1.833h0a1.833,1.833,0,0,1,1.833-1.832h25.227a1.833,1.833,0,0,1,1.833,1.832h0A1.833,1.833,0,0,1,1767.613,1626.059Z" transform="translate(-1666.733 -1618.728)"/><path class="f" d="M1804.712,1580.119h-25.227a1.833,1.833,0,0,1-1.833-1.833h0a1.833,1.833,0,0,1,1.833-1.833h25.227a1.833,1.833,0,0,1,1.833,1.833h0A1.833,1.833,0,0,1,1804.712,1580.119Z" transform="translate(-1700.872 -1576.453)"/></g></g><g transform="translate(422.947 8231.685)"><g transform="translate(0 16.258)"><g transform="translate(14.118)"><g transform="translate(1.895 30.214)"><path class="n" d="M1850.058,1749.145v1.792a1.268,1.268,0,0,1-1.268,1.268h-21.879a1.268,1.268,0,0,1-1.268-1.268v-1.792a1.267,1.267,0,0,1,1.268-1.268h21.879a1.267,1.267,0,0,1,1.268,1.268Z" transform="translate(-1825.643 -1747.877)"/><rect class="o" width="0.635" height="4.329" transform="translate(1.213)"/><rect class="o" width="0.635" height="4.329" transform="translate(3.878)"/><rect class="o" width="0.635" height="4.329" transform="translate(6.543)"/><rect class="o" width="0.635" height="4.329" transform="translate(9.208)"/><rect class="o" width="0.635" height="4.329" transform="translate(11.873)"/><rect class="o" width="0.635" height="4.329" transform="translate(14.538)"/><rect class="o" width="0.635" height="4.329" transform="translate(17.203)"/><rect class="o" width="0.635" height="4.329" transform="translate(19.868)"/><rect class="o" width="0.635" height="4.329" transform="translate(22.533)"/><path class="o" d="M1852.843,1748.326h-23.816a1.267,1.267,0,0,1,.969-.449h21.879A1.265,1.265,0,0,1,1852.843,1748.326Z" transform="translate(-1828.727 -1747.877)"/><path class="o" d="M1852.843,1791.722h-23.816a1.267,1.267,0,0,0,.969.449h21.879A1.265,1.265,0,0,0,1852.843,1791.722Z" transform="translate(-1828.727 -1787.843)"/></g><g transform="translate(3.425 25.884)"><path class="n" d="M1867.352,1700.218v1.792a1.268,1.268,0,0,1-1.268,1.268h-21.879a1.269,1.269,0,0,1-1.269-1.268v-1.792a1.269,1.269,0,0,1,1.269-1.269h21.879a1.269,1.269,0,0,1,1.268,1.269Z" transform="translate(-1842.937 -1698.949)"/><rect class="o" width="0.635" height="4.329" transform="translate(1.213 0)"/><rect class="o" width="0.635" height="4.329" transform="translate(3.878 0)"/><rect class="o" width="0.635" height="4.329" transform="translate(6.543 0)"/><rect class="o" width="0.635" height="4.329" transform="translate(9.208 0)"/><rect class="o" width="0.635" height="4.329" transform="translate(11.873 0)"/><rect class="o" width="0.635" height="4.329" transform="translate(14.538 0)"/><rect class="o" width="0.635" height="4.329" transform="translate(17.203 0)"/><rect class="o" width="0.635" height="4.329" transform="translate(19.868 0)"/><rect class="o" width="0.635" height="4.329" transform="translate(22.533 0)"/><path class="o" d="M1870.139,1699.4h-23.816a1.266,1.266,0,0,1,.969-.45h21.879A1.265,1.265,0,0,1,1870.139,1699.4Z" transform="translate(-1846.023 -1698.949)"/><path class="o" d="M1870.139,1742.793h-23.816a1.266,1.266,0,0,0,.969.449h21.879A1.265,1.265,0,0,0,1870.139,1742.793Z" transform="translate(-1846.023 -1738.914)"/></g><g transform="translate(2.239 21.563)"><path class="n" d="M1853.943,1651.375v1.793a1.269,1.269,0,0,1-1.268,1.268H1830.8a1.269,1.269,0,0,1-1.269-1.268v-1.793a1.268,1.268,0,0,1,1.269-1.268h21.879a1.269,1.269,0,0,1,1.268,1.268Z" transform="translate(-1829.527 -1650.107)"/><rect class="o" width="0.635" height="4.329" transform="translate(1.213 0)"/><rect class="o" width="0.635" height="4.329" transform="translate(3.878 0)"/><rect class="o" width="0.635" height="4.329" transform="translate(6.543 0)"/><rect class="o" width="0.635" height="4.329" transform="translate(9.208 0)"/><rect class="o" width="0.635" height="4.329" transform="translate(11.873 0)"/><rect class="o" width="0.635" height="4.329" transform="translate(14.538 0)"/><rect class="o" width="0.635" height="4.329" transform="translate(17.202 0)"/><rect class="o" width="0.636" height="4.329" transform="translate(19.867 0)"/><rect class="o" width="0.636" height="4.329" transform="translate(22.532 0)"/><path class="o" d="M1856.729,1650.557h-23.816a1.267,1.267,0,0,1,.969-.45h21.879A1.265,1.265,0,0,1,1856.729,1650.557Z" transform="translate(-1832.614 -1650.107)"/><path class="o" d="M1856.729,1693.953h-23.816a1.268,1.268,0,0,0,.969.45h21.879A1.266,1.266,0,0,0,1856.729,1693.953Z" transform="translate(-1832.614 -1690.074)"/></g><g transform="translate(2.727 17.32)"><path class="n" d="M1859.463,1603.422v1.792a1.268,1.268,0,0,1-1.268,1.268h-21.879a1.269,1.269,0,0,1-1.269-1.268v-1.792a1.268,1.268,0,0,1,1.269-1.268h21.879a1.268,1.268,0,0,1,1.268,1.268Z" transform="translate(-1835.047 -1602.154)"/><rect class="o" width="0.635" height="4.329" transform="translate(1.213 0)"/><rect class="o" width="0.635" height="4.329" transform="translate(3.878 0)"/><rect class="o" width="0.635" height="4.329" transform="translate(6.543 0)"/><rect class="o" width="0.635" height="4.329" transform="translate(9.208 0)"/><rect class="o" width="0.635" height="4.329" transform="translate(11.873 0)"/><rect class="o" width="0.635" height="4.329" transform="translate(14.538 0)"/><rect class="o" width="0.635" height="4.329" transform="translate(17.203 0)"/><rect class="o" width="0.635" height="4.329" transform="translate(19.868 0)"/><rect class="o" width="0.635" height="4.329" transform="translate(22.533 0)"/><path class="o" d="M1862.249,1602.6h-23.817a1.265,1.265,0,0,1,.969-.45h21.879A1.268,1.268,0,0,1,1862.249,1602.6Z" transform="translate(-1838.133 -1602.154)"/><path class="o" d="M1862.249,1646h-23.817a1.267,1.267,0,0,0,.969.449h21.879A1.269,1.269,0,0,0,1862.249,1646Z" transform="translate(-1838.133 -1642.12)"/></g><g transform="translate(0 12.926)"><path class="n" d="M1828.638,1553.759v1.793a1.269,1.269,0,0,1-1.269,1.268h-21.879a1.269,1.269,0,0,1-1.268-1.268v-1.793a1.268,1.268,0,0,1,1.268-1.268h21.879a1.268,1.268,0,0,1,1.269,1.268Z" transform="translate(-1804.223 -1552.491)"/><rect class="o" width="0.635" height="4.329" transform="translate(1.213 0)"/><rect class="o" width="0.635" height="4.329" transform="translate(3.878 0)"/><rect class="o" width="0.636" height="4.329" transform="translate(6.543 0)"/><rect class="o" width="0.636" height="4.329" transform="translate(9.207 0)"/><rect class="o" width="0.636" height="4.329" transform="translate(11.872 0)"/><rect class="o" width="0.635" height="4.329" transform="translate(14.538 0)"/><rect class="o" width="0.635" height="4.329" transform="translate(17.203 0)"/><rect class="o" width="0.635" height="4.329" transform="translate(19.868 0)"/><rect class="o" width="0.635" height="4.329" transform="translate(22.533 0)"/><path class="o" d="M1831.423,1552.941h-23.816a1.265,1.265,0,0,1,.969-.45h21.879A1.265,1.265,0,0,1,1831.423,1552.941Z" transform="translate(-1807.308 -1552.491)"/><path class="o" d="M1831.423,1596.336h-23.816a1.265,1.265,0,0,0,.969.45h21.879A1.266,1.266,0,0,0,1831.423,1596.336Z" transform="translate(-1807.308 -1592.457)"/></g><g transform="translate(2.684 8.647)"><path class="n" d="M1858.971,1505.405v1.792a1.269,1.269,0,0,1-1.268,1.268h-21.879a1.269,1.269,0,0,1-1.268-1.268v-1.792a1.267,1.267,0,0,1,1.268-1.268H1857.7a1.269,1.269,0,0,1,1.268,1.268Z" transform="translate(-1834.555 -1504.137)"/><rect class="o" width="0.635" height="4.329" transform="translate(1.213 0)"/><rect class="o" width="0.635" height="4.329" transform="translate(3.878 0)"/><rect class="o" width="0.635" height="4.329" transform="translate(6.543 0)"/><rect class="o" width="0.635" height="4.329" transform="translate(9.208 0)"/><rect class="o" width="0.635" height="4.329" transform="translate(11.873 0)"/><rect class="o" width="0.635" height="4.329" transform="translate(14.538 0)"/><rect class="o" width="0.635" height="4.329" transform="translate(17.203 0)"/><rect class="o" width="0.635" height="4.329" transform="translate(19.868 0)"/><rect class="o" width="0.635" height="4.329" transform="translate(22.533 0)"/><path class="o" d="M1861.756,1504.587H1837.94a1.265,1.265,0,0,1,.969-.45h21.878A1.264,1.264,0,0,1,1861.756,1504.587Z" transform="translate(-1837.64 -1504.137)"/><path class="o" d="M1861.756,1547.98H1837.94a1.266,1.266,0,0,0,.969.449h21.878A1.265,1.265,0,0,0,1861.756,1547.98Z" transform="translate(-1837.64 -1544.101)"/></g><g transform="translate(1.732 4.305)"><path class="n" d="M1848.213,1456.328v1.793a1.268,1.268,0,0,1-1.268,1.268h-21.879a1.268,1.268,0,0,1-1.269-1.268v-1.793a1.268,1.268,0,0,1,1.269-1.268h21.879a1.268,1.268,0,0,1,1.268,1.268Z" transform="translate(-1823.797 -1455.06)"/><rect class="o" width="0.635" height="4.329" transform="translate(1.213 0)"/><rect class="o" width="0.635" height="4.329" transform="translate(3.878 0)"/><rect class="o" width="0.635" height="4.329" transform="translate(6.543 0)"/><rect class="o" width="0.635" height="4.329" transform="translate(9.208 0)"/><rect class="o" width="0.635" height="4.329" transform="translate(11.873 0)"/><rect class="o" width="0.635" height="4.329" transform="translate(14.538 0)"/><rect class="o" width="0.635" height="4.329" transform="translate(17.203 0)"/><rect class="o" width="0.635" height="4.329" transform="translate(19.868 0)"/><rect class="o" width="0.635" height="4.329" transform="translate(22.533 0)"/><path class="o" d="M1851,1455.51h-23.816a1.266,1.266,0,0,1,.969-.45h21.879A1.267,1.267,0,0,1,1851,1455.51Z" transform="translate(-1826.883 -1455.06)"/><path class="o" d="M1851,1498.906h-23.816a1.267,1.267,0,0,0,.969.449h21.879A1.268,1.268,0,0,0,1851,1498.906Z" transform="translate(-1826.883 -1495.027)"/></g><g transform="translate(3.039)"><path class="n" d="M1862.99,1407.674v1.793a1.269,1.269,0,0,1-1.268,1.268h-21.879a1.269,1.269,0,0,1-1.268-1.268v-1.793a1.268,1.268,0,0,1,1.268-1.268h21.879a1.268,1.268,0,0,1,1.268,1.268Z" transform="translate(-1838.574 -1406.406)"/><rect class="o" width="0.636" height="4.329" transform="translate(1.213 0)"/><rect class="o" width="0.635" height="4.329" transform="translate(3.878 0)"/><rect class="o" width="0.635" height="4.329" transform="translate(6.543 0)"/><rect class="o" width="0.635" height="4.329" transform="translate(9.208 0)"/><rect class="o" width="0.635" height="4.329" transform="translate(11.873 0)"/><rect class="o" width="0.635" height="4.329" transform="translate(14.538 0)"/><rect class="o" width="0.635" height="4.329" transform="translate(17.203 0)"/><rect class="o" width="0.635" height="4.329" transform="translate(19.868 0)"/><rect class="o" width="0.635" height="4.329" transform="translate(22.533 0)"/><path class="o" d="M1865.776,1406.855h-23.817a1.267,1.267,0,0,1,.969-.449h21.879A1.268,1.268,0,0,1,1865.776,1406.855Z" transform="translate(-1841.66 -1406.406)"/><path class="o" d="M1865.776,1450.25h-23.817a1.267,1.267,0,0,0,.969.45h21.879A1.268,1.268,0,0,0,1865.776,1450.25Z" transform="translate(-1841.66 -1446.371)"/></g></g><g transform="translate(0 5.197)"><ellipse class="o" cx="13.057" cy="13.057" rx="13.057" ry="13.057" transform="translate(0 8.178) rotate(-18.251)"/><path class="n" d="M1730.714,1544.276a10.717,10.717,0,1,1-3.583-11.735,10.535,10.535,0,0,1,.837.73,10.744,10.744,0,0,1,2.747,11.006Z" transform="translate(-1704.018 -1524.49)"/><path class="p" d="M1727.13,1532.541l-14.78,15.405a10.748,10.748,0,0,1-2.556-7.529l9.707-10.118a10.761,10.761,0,0,1,7.63,2.241Z" transform="translate(-1704.018 -1524.49)"/><path class="p" d="M1764.15,1566.712l-14.263,14.866a10.618,10.618,0,0,1-2.418-1.729l14.853-15.483A10.725,10.725,0,0,1,1764.15,1566.712Z" transform="translate(-1738.373 -1555.587)"/><path class="k" d="M1806.366,1514.986c-1.267-.133-1.5-.008-2.067,1.116.141-1.252.016-1.483-1.116-2.068,1.267.133,1.5.008,2.067-1.116C1805.117,1514.185,1805.242,1514.417,1806.366,1514.986Z" transform="translate(-1789.156 -1508.691)"/><path class="k" d="M1760.806,1745.988c-1.069-.113-1.264-.007-1.745.941.119-1.056.014-1.252-.941-1.745,1.069.113,1.264.007,1.744-.942C1759.752,1745.313,1759.857,1745.508,1760.806,1745.988Z" transform="translate(-1748.081 -1719.548)"/></g></g><g transform="translate(33.347 0)"><path class="o" d="M2028.106,1227.57l-6.013-3.234-.509.946h0c-.246.457.908,1.556,2.578,2.454s3.223,1.256,3.468.8C2027.653,1228.492,2028.106,1227.57,2028.106,1227.57Z" transform="translate(-2021.551 -1224.188)"/><path class="n" d="M2033.072,1226.11c-.246.458-1.8.1-3.469-.8s-2.824-2-2.578-2.453,1.8-.1,3.468.8S2033.317,1225.654,2033.072,1226.11Z" transform="translate(-2026.511 -1222.66)"/></g><g transform="translate(7.098 15.102)"><path class="o" d="M1730.973,1398.219l-6.085.988q.078.478.156.957h0c.075.463,1.506.615,3.2.341s3-.872,2.924-1.334C1731.156,1399.128,1730.973,1398.219,1730.973,1398.219Z" transform="translate(-1724.888 -1397.788)"/><path class="n" d="M1731.069,1393.821c.075.462-1.233,1.06-2.923,1.334s-3.121.122-3.2-.341,1.234-1.06,2.924-1.335S1730.994,1393.358,1731.069,1393.821Z" transform="translate(-1724.942 -1393.343)"/></g><g transform="translate(14.469 1.983)"><path class="o" d="M1814.179,1249.5l-5.531-2.724q-.213.435-.428.87h0c-.207.421.87,1.375,2.406,2.131s2.949,1.029,3.156.608C1813.8,1250.35,1814.179,1249.5,1814.179,1249.5Z" transform="translate(-1808.194 -1246.629)"/><path class="n" d="M1818.364,1248.01c-.207.421-1.62.148-3.156-.608s-2.613-1.711-2.406-2.131,1.62-.148,3.156.609S1818.571,1247.59,1818.364,1248.01Z" transform="translate(-1812.371 -1245.073)"/></g></g></g></svg>