<svg xmlns="http://www.w3.org/2000/svg" xmlns:xlink="http://www.w3.org/1999/xlink" width="88" height="80" viewBox="0 0 88 80"><defs><style>.a{fill:#7f7f7f;}.b{fill:url(#a);}.c{fill:#fcba30;}.d{fill:url(#b);}</style><linearGradient id="a" x1="0.5" y1="-0.007" x2="0.5" y2="0.956" gradientUnits="objectBoundingBox"><stop offset="0" stop-color="#3b3b3b"/><stop offset="1" stop-color="#202020"/></linearGradient><linearGradient id="b" x1="0.5" y1="-0.845" x2="0.5" y2="1.497" xlink:href="#a"/></defs><g transform="translate(1088 -5813)"><g transform="translate(-1088 5813)"><path class="a" d="M62.061,116.855A12.891,12.891,0,0,1,50.847,97.52L81.879,44.01a12.977,12.977,0,0,1,22.427,0l31.031,53.51a12.89,12.89,0,0,1-11.213,19.335Z" transform="translate(-49.092 -37.565)"/><path class="b" d="M62.061,117.812A12.891,12.891,0,0,1,50.847,98.477L81.879,44.967a12.977,12.977,0,0,1,22.427,0l31.031,53.51a12.89,12.89,0,0,1-11.213,19.335Z" transform="translate(-49.092 -37.812)"/><path class="c" d="M93.192,51.633,60.113,108.616a5.794,5.794,0,0,0,5.045,8.691h66.157a5.794,5.794,0,0,0,5.045-8.691L103.282,51.633A5.842,5.842,0,0,0,93.192,51.633Z" transform="translate(-54.237 -42.667)"/><g transform="translate(39.528 28.555)"><path class="d" d="M103.128,106.461a4.493,4.493,0,1,1,4.493,4.493A4.523,4.523,0,0,1,103.128,106.461Zm.236-19.819v-9.46h8.515v9.46L110.46,98.467h-5.677Z" transform="translate(-103.128 -77.182)"/></g></g></g></svg>